  0
SECTION
  2
HEADER
  9
$ANGBASE
  50
0.0
  9
$ANGDIR
  70
  1
  9
$MEASUREMENT
  70
0
  0
ENDSEC
  0
SECTION
  2
TABLES
  0
TABLE
  2
LTYPE
  70
1
  0
LTYPE
  2
CONTINUOUS
  70
0
  3
Solid line
  72
65
  73
0
  40
0.0
  0
ENDTAB
  0
TABLE
  2
STYLE
  70
4
  0
STYLE
  2
KICAD
  70
0
  40
0
  41
1
  42
1
  50
0
  71
0
  3
isocp.shx
  0
STYLE
  2
KICADB
  70
0
  40
0
  41
1
  42
1
  50
0
  71
0
  3
isocp.shx
  0
STYLE
  2
KICADI
  70
0
  40
0
  41
1
  42
1
  50
15
  71
0
  3
isocp.shx
  0
STYLE
  2
KICADBI
  70
0
  40
0
  41
1
  42
1
  50
15
  71
0
  3
isocp.shx
  0
ENDTAB
  0
TABLE
  2
LAYER
  70
30
  0
LAYER
  2
BLACK
  70
0
  62
7
  6
CONTINUOUS
  0
LAYER
  2
GRAY1
  70
0
  62
251
  6
CONTINUOUS
  0
LAYER
  2
GRAY2
  70
0
  62
8
  6
CONTINUOUS
  0
LAYER
  2
GRAY3
  70
0
  62
9
  6
CONTINUOUS
  0
LAYER
  2
WHITE
  70
0
  62
7
  6
CONTINUOUS
  0
LAYER
  2
LYELLOW
  70
0
  62
51
  6
CONTINUOUS
  0
LAYER
  2
BLUE1
  70
0
  62
178
  6
CONTINUOUS
  0
LAYER
  2
GREEN1
  70
0
  62
98
  6
CONTINUOUS
  0
LAYER
  2
CYAN1
  70
0
  62
138
  6
CONTINUOUS
  0
LAYER
  2
RED1
  70
0
  62
18
  6
CONTINUOUS
  0
LAYER
  2
MAGENTA1
  70
0
  62
228
  6
CONTINUOUS
  0
LAYER
  2
BROWN1
  70
0
  62
58
  6
CONTINUOUS
  0
LAYER
  2
BLUE2
  70
0
  62
5
  6
CONTINUOUS
  0
LAYER
  2
GREEN2
  70
0
  62
3
  6
CONTINUOUS
  0
LAYER
  2
CYAN2
  70
0
  62
4
  6
CONTINUOUS
  0
LAYER
  2
RED2
  70
0
  62
1
  6
CONTINUOUS
  0
LAYER
  2
MAGENTA2
  70
0
  62
6
  6
CONTINUOUS
  0
LAYER
  2
BROWN2
  70
0
  62
54
  6
CONTINUOUS
  0
LAYER
  2
BLUE3
  70
0
  62
171
  6
CONTINUOUS
  0
LAYER
  2
GREEN3
  70
0
  62
91
  6
CONTINUOUS
  0
LAYER
  2
CYAN3
  70
0
  62
131
  6
CONTINUOUS
  0
LAYER
  2
RED3
  70
0
  62
11
  6
CONTINUOUS
  0
LAYER
  2
MAGENTA3
  70
0
  62
221
  6
CONTINUOUS
  0
LAYER
  2
YELLOW3
  70
0
  62
2
  6
CONTINUOUS
  0
LAYER
  2
BLUE4
  70
0
  62
5
  6
CONTINUOUS
  0
LAYER
  2
GREEN4
  70
0
  62
3
  6
CONTINUOUS
  0
LAYER
  2
CYAN4
  70
0
  62
4
  6
CONTINUOUS
  0
LAYER
  2
RED4
  70
0
  62
1
  6
CONTINUOUS
  0
LAYER
  2
MAGENTA4
  70
0
  62
6
  6
CONTINUOUS
  0
LAYER
  2
YELLOW4
  70
0
  62
2
  6
CONTINUOUS
  0
ENDTAB
  0
ENDSEC
  0
SECTION
  2
ENTITIES
0
LINE
8
Black
10
107.05
20
-128
11
107.05
21
-75
0
LINE
8
Black
10
106.95
20
-128
11
106.95
21
-75
0
ARC
8
Black
10
107
20
-75
40
0.05
50
360
51
540
0
ARC
8
Black
10
107
20
-128
40
0.05
50
180
51
360
0
LINE
8
Black
10
107
20
-128.05
11
160
21
-128.05
0
LINE
8
Black
10
107
20
-127.95
11
160
21
-127.95
0
ARC
8
Black
10
160
20
-128
40
0.05
50
270
51
450
0
ARC
8
Black
10
107
20
-128
40
0.05
50
90
51
270
0
LINE
8
Black
10
160.05
20
-128
11
160.05
21
-75
0
LINE
8
Black
10
159.95
20
-128
11
159.95
21
-75
0
ARC
8
Black
10
160
20
-75
40
0.05
50
360
51
540
0
ARC
8
Black
10
160
20
-128
40
0.05
50
180
51
360
0
LINE
8
Black
10
107
20
-75.05
11
160
21
-75.05
0
LINE
8
Black
10
107
20
-74.95
11
160
21
-74.95
0
ARC
8
Black
10
160
20
-75
40
0.05
50
270
51
450
0
ARC
8
Black
10
107
20
-75
40
0.05
50
90
51
270
0
LINE
8
Black
10
136.13
20
-104.155
11
136.93
21
-104.955
0
LINE
8
Black
10
136.93
20
-104.155
11
136.13
21
-104.955
0
LINE
8
Black
10
136.13
20
-106.695
11
136.93
21
-107.495
0
LINE
8
Black
10
136.93
20
-106.695
11
136.13
21
-107.495
0
LINE
8
Black
10
136.13
20
-109.235
11
136.93
21
-110.035
0
LINE
8
Black
10
136.93
20
-109.235
11
136.13
21
-110.035
0
LINE
8
Black
10
136.13
20
-111.775
11
136.93
21
-112.575
0
LINE
8
Black
10
136.93
20
-111.775
11
136.13
21
-112.575
0
LINE
8
Black
10
137.4
20
-105.425
11
138.2
21
-106.225
0
LINE
8
Black
10
138.2
20
-105.425
11
137.4
21
-106.225
0
LINE
8
Black
10
137.4
20
-107.965
11
138.2
21
-108.765
0
LINE
8
Black
10
138.2
20
-107.965
11
137.4
21
-108.765
0
LINE
8
Black
10
137.4
20
-110.505
11
138.2
21
-111.305
0
LINE
8
Black
10
138.2
20
-110.505
11
137.4
21
-111.305
0
LINE
8
Black
10
137.4
20
-113.045
11
138.2
21
-113.845
0
LINE
8
Black
10
138.2
20
-113.045
11
137.4
21
-113.845
0
LINE
8
Black
10
142.8
20
-104.155
11
143.6
21
-104.955
0
LINE
8
Black
10
143.6
20
-104.155
11
142.8
21
-104.955
0
LINE
8
Black
10
142.8
20
-106.695
11
143.6
21
-107.495
0
LINE
8
Black
10
143.6
20
-106.695
11
142.8
21
-107.495
0
LINE
8
Black
10
142.8
20
-109.235
11
143.6
21
-110.035
0
LINE
8
Black
10
143.6
20
-109.235
11
142.8
21
-110.035
0
LINE
8
Black
10
142.8
20
-111.775
11
143.6
21
-112.575
0
LINE
8
Black
10
143.6
20
-111.775
11
142.8
21
-112.575
0
LINE
8
Black
10
144.07
20
-105.425
11
144.87
21
-106.225
0
LINE
8
Black
10
144.87
20
-105.425
11
144.07
21
-106.225
0
LINE
8
Black
10
144.07
20
-107.965
11
144.87
21
-108.765
0
LINE
8
Black
10
144.87
20
-107.965
11
144.07
21
-108.765
0
LINE
8
Black
10
144.07
20
-110.505
11
144.87
21
-111.305
0
LINE
8
Black
10
144.87
20
-110.505
11
144.07
21
-111.305
0
LINE
8
Black
10
144.07
20
-113.045
11
144.87
21
-113.845
0
LINE
8
Black
10
144.87
20
-113.045
11
144.07
21
-113.845
0
CIRCLE
8
Black
10
117.9
20
-94.7
40
0.45
0
CIRCLE
8
Black
10
126.8
20
-89.7
40
0.45
0
CIRCLE
8
Black
10
130
20
-115
40
0.45
0
CIRCLE
8
Black
10
131
20
-112
40
0.45
0
LINE
8
Black
10
136.75
20
-84
11
136.75
21
-85
0
LINE
8
Black
10
136.25
20
-84.5
11
137.25
21
-84.5
0
LINE
8
Black
10
143.25
20
-84
11
143.25
21
-85
0
LINE
8
Black
10
142.75
20
-84.5
11
143.75
21
-84.5
0
LINE
8
Black
10
119.104
20
-110.604
11
119.104
21
-109.896
0
LINE
8
Black
10
119.104
20
-109.896
11
118.396
21
-109.896
0
LINE
8
Black
10
118.396
20
-109.896
11
118.396
21
-110.604
0
LINE
8
Black
10
118.396
20
-110.604
11
119.104
21
-110.604
0
LINE
8
Black
10
119.104
20
-113.144
11
119.104
21
-112.436
0
LINE
8
Black
10
119.104
20
-112.436
11
118.396
21
-112.436
0
LINE
8
Black
10
118.396
20
-112.436
11
118.396
21
-113.144
0
LINE
8
Black
10
118.396
20
-113.144
11
119.104
21
-113.144
0
LINE
8
Black
10
125.854
20
-106.604
11
125.854
21
-105.896
0
LINE
8
Black
10
125.854
20
-105.896
11
125.146
21
-105.896
0
LINE
8
Black
10
125.146
20
-105.896
11
125.146
21
-106.604
0
LINE
8
Black
10
125.146
20
-106.604
11
125.854
21
-106.604
0
LINE
8
Black
10
125.854
20
-121.604
11
125.854
21
-120.896
0
LINE
8
Black
10
125.854
20
-120.896
11
125.146
21
-120.896
0
LINE
8
Black
10
125.146
20
-120.896
11
125.146
21
-121.604
0
LINE
8
Black
10
125.146
20
-121.604
11
125.854
21
-121.604
0
LINE
8
Black
10
120.65
20
-87.608
11
121.158
21
-87.1
0
LINE
8
Black
10
121.158
20
-87.1
11
120.65
21
-86.592
0
LINE
8
Black
10
120.65
20
-86.592
11
120.142
21
-87.1
0
LINE
8
Black
10
120.142
20
-87.1
11
120.65
21
-87.608
0
LINE
8
Black
10
120.65
20
-90.148
11
121.158
21
-89.64
0
LINE
8
Black
10
121.158
20
-89.64
11
120.65
21
-89.132
0
LINE
8
Black
10
120.65
20
-89.132
11
120.142
21
-89.64
0
LINE
8
Black
10
120.142
20
-89.64
11
120.65
21
-90.148
0
LINE
8
Black
10
120.65
20
-92.688
11
121.158
21
-92.18
0
LINE
8
Black
10
121.158
20
-92.18
11
120.65
21
-91.672
0
LINE
8
Black
10
120.65
20
-91.672
11
120.142
21
-92.18
0
LINE
8
Black
10
120.142
20
-92.18
11
120.65
21
-92.688
0
LINE
8
Black
10
120.65
20
-95.228
11
121.158
21
-94.72
0
LINE
8
Black
10
121.158
20
-94.72
11
120.65
21
-94.212
0
LINE
8
Black
10
120.65
20
-94.212
11
120.142
21
-94.72
0
LINE
8
Black
10
120.142
20
-94.72
11
120.65
21
-95.228
0
LINE
8
Black
10
120.65
20
-97.768
11
121.158
21
-97.26
0
LINE
8
Black
10
121.158
20
-97.26
11
120.65
21
-96.752
0
LINE
8
Black
10
120.65
20
-96.752
11
120.142
21
-97.26
0
LINE
8
Black
10
120.142
20
-97.26
11
120.65
21
-97.768
0
LINE
8
Black
10
123.19
20
-87.608
11
123.698
21
-87.1
0
LINE
8
Black
10
123.698
20
-87.1
11
123.19
21
-86.592
0
LINE
8
Black
10
123.19
20
-86.592
11
122.682
21
-87.1
0
LINE
8
Black
10
122.682
20
-87.1
11
123.19
21
-87.608
0
LINE
8
Black
10
123.19
20
-90.148
11
123.698
21
-89.64
0
LINE
8
Black
10
123.698
20
-89.64
11
123.19
21
-89.132
0
LINE
8
Black
10
123.19
20
-89.132
11
122.682
21
-89.64
0
LINE
8
Black
10
122.682
20
-89.64
11
123.19
21
-90.148
0
LINE
8
Black
10
123.19
20
-92.688
11
123.698
21
-92.18
0
LINE
8
Black
10
123.698
20
-92.18
11
123.19
21
-91.672
0
LINE
8
Black
10
123.19
20
-91.672
11
122.682
21
-92.18
0
LINE
8
Black
10
122.682
20
-92.18
11
123.19
21
-92.688
0
LINE
8
Black
10
123.19
20
-95.228
11
123.698
21
-94.72
0
LINE
8
Black
10
123.698
20
-94.72
11
123.19
21
-94.212
0
LINE
8
Black
10
123.19
20
-94.212
11
122.682
21
-94.72
0
LINE
8
Black
10
122.682
20
-94.72
11
123.19
21
-95.228
0
LINE
8
Black
10
123.19
20
-97.768
11
123.698
21
-97.26
0
LINE
8
Black
10
123.698
20
-97.26
11
123.19
21
-96.752
0
LINE
8
Black
10
123.19
20
-96.752
11
122.682
21
-97.26
0
LINE
8
Black
10
122.682
20
-97.26
11
123.19
21
-97.768
0
LINE
8
Black
10
110.5
20
-78.5
11
113.5
21
-81.5
0
LINE
8
Black
10
113.5
20
-78.5
11
110.5
21
-81.5
0
CIRCLE
8
Black
10
112
20
-80
40
1.5
0
LINE
8
Black
10
110.5
20
-121.5
11
113.5
21
-124.5
0
LINE
8
Black
10
113.5
20
-121.5
11
110.5
21
-124.5
0
CIRCLE
8
Black
10
112
20
-123
40
1.5
0
LINE
8
Black
10
153.5
20
-78.5
11
156.5
21
-81.5
0
LINE
8
Black
10
156.5
20
-78.5
11
153.5
21
-81.5
0
CIRCLE
8
Black
10
155
20
-80
40
1.5
0
LINE
8
Black
10
153.5
20
-121.5
11
156.5
21
-124.5
0
LINE
8
Black
10
156.5
20
-121.5
11
153.5
21
-124.5
0
CIRCLE
8
Black
10
155
20
-123
40
1.5
0
LINE
8
Black
10
109.664
20
-132.707
11
109.664
21
-129.707
0
LINE
8
Black
10
109.664
20
-129.707
11
110.379
21
-129.707
0
LINE
8
Black
10
110.379
20
-129.707
11
110.807
21
-129.85
0
LINE
8
Black
10
110.807
20
-129.85
11
111.093
21
-130.136
0
LINE
8
Black
10
111.093
20
-130.136
11
111.236
21
-130.421
0
LINE
8
Black
10
111.236
20
-130.421
11
111.379
21
-130.993
0
LINE
8
Black
10
111.379
20
-130.993
11
111.379
21
-131.421
0
LINE
8
Black
10
111.379
20
-131.421
11
111.236
21
-131.993
0
LINE
8
Black
10
111.236
20
-131.993
11
111.093
21
-132.279
0
LINE
8
Black
10
111.093
20
-132.279
11
110.807
21
-132.564
0
LINE
8
Black
10
110.807
20
-132.564
11
110.379
21
-132.707
0
LINE
8
Black
10
110.379
20
-132.707
11
109.664
21
-132.707
0
LINE
8
Black
10
112.664
20
-132.707
11
112.664
21
-130.707
0
LINE
8
Black
10
112.664
20
-131.279
11
112.807
21
-130.993
0
LINE
8
Black
10
112.807
20
-130.993
11
112.95
21
-130.85
0
LINE
8
Black
10
112.95
20
-130.85
11
113.236
21
-130.707
0
LINE
8
Black
10
113.236
20
-130.707
11
113.521
21
-130.707
0
LINE
8
Black
10
114.521
20
-132.707
11
114.521
21
-130.707
0
LINE
8
Black
10
114.521
20
-129.707
11
114.379
21
-129.85
0
LINE
8
Black
10
114.379
20
-129.85
11
114.521
21
-129.993
0
LINE
8
Black
10
114.521
20
-129.993
11
114.664
21
-129.85
0
LINE
8
Black
10
114.664
20
-129.85
11
114.521
21
-129.707
0
LINE
8
Black
10
114.521
20
-129.707
11
114.521
21
-129.993
0
LINE
8
Black
10
116.379
20
-132.707
11
116.093
21
-132.564
0
LINE
8
Black
10
116.093
20
-132.564
11
115.95
21
-132.279
0
LINE
8
Black
10
115.95
20
-132.279
11
115.95
21
-129.707
0
LINE
8
Black
10
117.95
20
-132.707
11
117.664
21
-132.564
0
LINE
8
Black
10
117.664
20
-132.564
11
117.521
21
-132.279
0
LINE
8
Black
10
117.521
20
-132.279
11
117.521
21
-129.707
0
LINE
8
Black
10
121.379
20
-132.707
11
121.379
21
-129.707
0
LINE
8
Black
10
121.379
20
-129.707
11
122.379
21
-131.85
0
LINE
8
Black
10
122.379
20
-131.85
11
123.379
21
-129.707
0
LINE
8
Black
10
123.379
20
-129.707
11
123.379
21
-132.707
0
LINE
8
Black
10
126.093
20
-132.707
11
126.093
21
-131.136
0
LINE
8
Black
10
126.093
20
-131.136
11
125.95
21
-130.85
0
LINE
8
Black
10
125.95
20
-130.85
11
125.664
21
-130.707
0
LINE
8
Black
10
125.664
20
-130.707
11
125.093
21
-130.707
0
LINE
8
Black
10
125.093
20
-130.707
11
124.807
21
-130.85
0
LINE
8
Black
10
126.093
20
-132.564
11
125.807
21
-132.707
0
LINE
8
Black
10
125.807
20
-132.707
11
125.093
21
-132.707
0
LINE
8
Black
10
125.093
20
-132.707
11
124.807
21
-132.564
0
LINE
8
Black
10
124.807
20
-132.564
11
124.664
21
-132.279
0
LINE
8
Black
10
124.664
20
-132.279
11
124.664
21
-131.993
0
LINE
8
Black
10
124.664
20
-131.993
11
124.807
21
-131.707
0
LINE
8
Black
10
124.807
20
-131.707
11
125.093
21
-131.564
0
LINE
8
Black
10
125.093
20
-131.564
11
125.807
21
-131.564
0
LINE
8
Black
10
125.807
20
-131.564
11
126.093
21
-131.421
0
LINE
8
Black
10
127.521
20
-130.707
11
127.521
21
-133.707
0
LINE
8
Black
10
127.521
20
-130.85
11
127.807
21
-130.707
0
LINE
8
Black
10
127.807
20
-130.707
11
128.379
21
-130.707
0
LINE
8
Black
10
128.379
20
-130.707
11
128.664
21
-130.85
0
LINE
8
Black
10
128.664
20
-130.85
11
128.807
21
-130.993
0
LINE
8
Black
10
128.807
20
-130.993
11
128.95
21
-131.279
0
LINE
8
Black
10
128.95
20
-131.279
11
128.95
21
-132.136
0
LINE
8
Black
10
128.95
20
-132.136
11
128.807
21
-132.421
0
LINE
8
Black
10
128.807
20
-132.421
11
128.664
21
-132.564
0
LINE
8
Black
10
128.664
20
-132.564
11
128.379
21
-132.707
0
LINE
8
Black
10
128.379
20
-132.707
11
127.807
21
-132.707
0
LINE
8
Black
10
127.807
20
-132.707
11
127.521
21
-132.564
0
LINE
8
Black
10
130.236
20
-132.421
11
130.379
21
-132.564
0
LINE
8
Black
10
130.379
20
-132.564
11
130.236
21
-132.707
0
LINE
8
Black
10
130.236
20
-132.707
11
130.093
21
-132.564
0
LINE
8
Black
10
130.093
20
-132.564
11
130.236
21
-132.421
0
LINE
8
Black
10
130.236
20
-132.421
11
130.236
21
-132.707
0
LINE
8
Black
10
130.236
20
-130.85
11
130.379
21
-130.993
0
LINE
8
Black
10
130.379
20
-130.993
11
130.236
21
-131.136
0
LINE
8
Black
10
130.236
20
-131.136
11
130.093
21
-130.993
0
LINE
8
Black
10
130.093
20
-130.993
11
130.236
21
-130.85
0
LINE
8
Black
10
130.236
20
-130.85
11
130.236
21
-131.136
0
LINE
8
Black
10
106.15
20
-137.25
11
106.95
21
-138.05
0
LINE
8
Black
10
106.95
20
-137.25
11
106.15
21
-138.05
0
LINE
8
Black
10
110.236
20
-136.007
11
110.521
21
-136.007
0
LINE
8
Black
10
110.521
20
-136.007
11
110.807
21
-136.15
0
LINE
8
Black
10
110.807
20
-136.15
11
110.95
21
-136.293
0
LINE
8
Black
10
110.95
20
-136.293
11
111.093
21
-136.579
0
LINE
8
Black
10
111.093
20
-136.579
11
111.236
21
-137.15
0
LINE
8
Black
10
111.236
20
-137.15
11
111.236
21
-137.864
0
LINE
8
Black
10
111.236
20
-137.864
11
111.093
21
-138.436
0
LINE
8
Black
10
111.093
20
-138.436
11
110.95
21
-138.721
0
LINE
8
Black
10
110.95
20
-138.721
11
110.807
21
-138.864
0
LINE
8
Black
10
110.807
20
-138.864
11
110.521
21
-139.007
0
LINE
8
Black
10
110.521
20
-139.007
11
110.236
21
-139.007
0
LINE
8
Black
10
110.236
20
-139.007
11
109.95
21
-138.864
0
LINE
8
Black
10
109.95
20
-138.864
11
109.807
21
-138.721
0
LINE
8
Black
10
109.807
20
-138.721
11
109.664
21
-138.436
0
LINE
8
Black
10
109.664
20
-138.436
11
109.521
21
-137.864
0
LINE
8
Black
10
109.521
20
-137.864
11
109.521
21
-137.15
0
LINE
8
Black
10
109.521
20
-137.15
11
109.664
21
-136.579
0
LINE
8
Black
10
109.664
20
-136.579
11
109.807
21
-136.293
0
LINE
8
Black
10
109.807
20
-136.293
11
109.95
21
-136.15
0
LINE
8
Black
10
109.95
20
-136.15
11
110.236
21
-136.007
0
LINE
8
Black
10
112.521
20
-138.721
11
112.664
21
-138.864
0
LINE
8
Black
10
112.664
20
-138.864
11
112.521
21
-139.007
0
LINE
8
Black
10
112.521
20
-139.007
11
112.379
21
-138.864
0
LINE
8
Black
10
112.379
20
-138.864
11
112.521
21
-138.721
0
LINE
8
Black
10
112.521
20
-138.721
11
112.521
21
-139.007
0
LINE
8
Black
10
114.379
20
-137.293
11
114.093
21
-137.15
0
LINE
8
Black
10
114.093
20
-137.15
11
113.95
21
-137.007
0
LINE
8
Black
10
113.95
20
-137.007
11
113.807
21
-136.721
0
LINE
8
Black
10
113.807
20
-136.721
11
113.807
21
-136.579
0
LINE
8
Black
10
113.807
20
-136.579
11
113.95
21
-136.293
0
LINE
8
Black
10
113.95
20
-136.293
11
114.093
21
-136.15
0
LINE
8
Black
10
114.093
20
-136.15
11
114.379
21
-136.007
0
LINE
8
Black
10
114.379
20
-136.007
11
114.95
21
-136.007
0
LINE
8
Black
10
114.95
20
-136.007
11
115.236
21
-136.15
0
LINE
8
Black
10
115.236
20
-136.15
11
115.379
21
-136.293
0
LINE
8
Black
10
115.379
20
-136.293
11
115.521
21
-136.579
0
LINE
8
Black
10
115.521
20
-136.579
11
115.521
21
-136.721
0
LINE
8
Black
10
115.521
20
-136.721
11
115.379
21
-137.007
0
LINE
8
Black
10
115.379
20
-137.007
11
115.236
21
-137.15
0
LINE
8
Black
10
115.236
20
-137.15
11
114.95
21
-137.293
0
LINE
8
Black
10
114.95
20
-137.293
11
114.379
21
-137.293
0
LINE
8
Black
10
114.379
20
-137.293
11
114.093
21
-137.436
0
LINE
8
Black
10
114.093
20
-137.436
11
113.95
21
-137.579
0
LINE
8
Black
10
113.95
20
-137.579
11
113.807
21
-137.864
0
LINE
8
Black
10
113.807
20
-137.864
11
113.807
21
-138.436
0
LINE
8
Black
10
113.807
20
-138.436
11
113.95
21
-138.721
0
LINE
8
Black
10
113.95
20
-138.721
11
114.093
21
-138.864
0
LINE
8
Black
10
114.093
20
-138.864
11
114.379
21
-139.007
0
LINE
8
Black
10
114.379
20
-139.007
11
114.95
21
-139.007
0
LINE
8
Black
10
114.95
20
-139.007
11
115.236
21
-138.864
0
LINE
8
Black
10
115.236
20
-138.864
11
115.379
21
-138.721
0
LINE
8
Black
10
115.379
20
-138.721
11
115.521
21
-138.436
0
LINE
8
Black
10
115.521
20
-138.436
11
115.521
21
-137.864
0
LINE
8
Black
10
115.521
20
-137.864
11
115.379
21
-137.579
0
LINE
8
Black
10
115.379
20
-137.579
11
115.236
21
-137.436
0
LINE
8
Black
10
115.236
20
-137.436
11
114.95
21
-137.293
0
LINE
8
Black
10
117.379
20
-136.007
11
117.664
21
-136.007
0
LINE
8
Black
10
117.664
20
-136.007
11
117.95
21
-136.15
0
LINE
8
Black
10
117.95
20
-136.15
11
118.093
21
-136.293
0
LINE
8
Black
10
118.093
20
-136.293
11
118.236
21
-136.579
0
LINE
8
Black
10
118.236
20
-136.579
11
118.379
21
-137.15
0
LINE
8
Black
10
118.379
20
-137.15
11
118.379
21
-137.864
0
LINE
8
Black
10
118.379
20
-137.864
11
118.236
21
-138.436
0
LINE
8
Black
10
118.236
20
-138.436
11
118.093
21
-138.721
0
LINE
8
Black
10
118.093
20
-138.721
11
117.95
21
-138.864
0
LINE
8
Black
10
117.95
20
-138.864
11
117.664
21
-139.007
0
LINE
8
Black
10
117.664
20
-139.007
11
117.379
21
-139.007
0
LINE
8
Black
10
117.379
20
-139.007
11
117.093
21
-138.864
0
LINE
8
Black
10
117.093
20
-138.864
11
116.95
21
-138.721
0
LINE
8
Black
10
116.95
20
-138.721
11
116.807
21
-138.436
0
LINE
8
Black
10
116.807
20
-138.436
11
116.664
21
-137.864
0
LINE
8
Black
10
116.664
20
-137.864
11
116.664
21
-137.15
0
LINE
8
Black
10
116.664
20
-137.15
11
116.807
21
-136.579
0
LINE
8
Black
10
116.807
20
-136.579
11
116.95
21
-136.293
0
LINE
8
Black
10
116.95
20
-136.293
11
117.093
21
-136.15
0
LINE
8
Black
10
117.093
20
-136.15
11
117.379
21
-136.007
0
LINE
8
Black
10
119.664
20
-139.007
11
119.664
21
-137.007
0
LINE
8
Black
10
119.664
20
-137.293
11
119.807
21
-137.15
0
LINE
8
Black
10
119.807
20
-137.15
11
120.093
21
-137.007
0
LINE
8
Black
10
120.093
20
-137.007
11
120.521
21
-137.007
0
LINE
8
Black
10
120.521
20
-137.007
11
120.807
21
-137.15
0
LINE
8
Black
10
120.807
20
-137.15
11
120.95
21
-137.436
0
LINE
8
Black
10
120.95
20
-137.436
11
120.95
21
-139.007
0
LINE
8
Black
10
120.95
20
-137.436
11
121.093
21
-137.15
0
LINE
8
Black
10
121.093
20
-137.15
11
121.379
21
-137.007
0
LINE
8
Black
10
121.379
20
-137.007
11
121.807
21
-137.007
0
LINE
8
Black
10
121.807
20
-137.007
11
122.093
21
-137.15
0
LINE
8
Black
10
122.093
20
-137.15
11
122.236
21
-137.436
0
LINE
8
Black
10
122.236
20
-137.436
11
122.236
21
-139.007
0
LINE
8
Black
10
123.664
20
-139.007
11
123.664
21
-137.007
0
LINE
8
Black
10
123.664
20
-137.293
11
123.807
21
-137.15
0
LINE
8
Black
10
123.807
20
-137.15
11
124.093
21
-137.007
0
LINE
8
Black
10
124.093
20
-137.007
11
124.521
21
-137.007
0
LINE
8
Black
10
124.521
20
-137.007
11
124.807
21
-137.15
0
LINE
8
Black
10
124.807
20
-137.15
11
124.95
21
-137.436
0
LINE
8
Black
10
124.95
20
-137.436
11
124.95
21
-139.007
0
LINE
8
Black
10
124.95
20
-137.436
11
125.093
21
-137.15
0
LINE
8
Black
10
125.093
20
-137.15
11
125.379
21
-137.007
0
LINE
8
Black
10
125.379
20
-137.007
11
125.807
21
-137.007
0
LINE
8
Black
10
125.807
20
-137.007
11
126.093
21
-137.15
0
LINE
8
Black
10
126.093
20
-137.15
11
126.236
21
-137.436
0
LINE
8
Black
10
126.236
20
-137.436
11
126.236
21
-139.007
0
LINE
8
Black
10
132.093
20
-135.864
11
129.521
21
-139.721
0
LINE
8
Black
10
135.95
20
-136.007
11
136.236
21
-136.007
0
LINE
8
Black
10
136.236
20
-136.007
11
136.521
21
-136.15
0
LINE
8
Black
10
136.521
20
-136.15
11
136.664
21
-136.293
0
LINE
8
Black
10
136.664
20
-136.293
11
136.807
21
-136.579
0
LINE
8
Black
10
136.807
20
-136.579
11
136.95
21
-137.15
0
LINE
8
Black
10
136.95
20
-137.15
11
136.95
21
-137.864
0
LINE
8
Black
10
136.95
20
-137.864
11
136.807
21
-138.436
0
LINE
8
Black
10
136.807
20
-138.436
11
136.664
21
-138.721
0
LINE
8
Black
10
136.664
20
-138.721
11
136.521
21
-138.864
0
LINE
8
Black
10
136.521
20
-138.864
11
136.236
21
-139.007
0
LINE
8
Black
10
136.236
20
-139.007
11
135.95
21
-139.007
0
LINE
8
Black
10
135.95
20
-139.007
11
135.664
21
-138.864
0
LINE
8
Black
10
135.664
20
-138.864
11
135.521
21
-138.721
0
LINE
8
Black
10
135.521
20
-138.721
11
135.379
21
-138.436
0
LINE
8
Black
10
135.379
20
-138.436
11
135.236
21
-137.864
0
LINE
8
Black
10
135.236
20
-137.864
11
135.236
21
-137.15
0
LINE
8
Black
10
135.236
20
-137.15
11
135.379
21
-136.579
0
LINE
8
Black
10
135.379
20
-136.579
11
135.521
21
-136.293
0
LINE
8
Black
10
135.521
20
-136.293
11
135.664
21
-136.15
0
LINE
8
Black
10
135.664
20
-136.15
11
135.95
21
-136.007
0
LINE
8
Black
10
138.236
20
-138.721
11
138.379
21
-138.864
0
LINE
8
Black
10
138.379
20
-138.864
11
138.236
21
-139.007
0
LINE
8
Black
10
138.236
20
-139.007
11
138.093
21
-138.864
0
LINE
8
Black
10
138.093
20
-138.864
11
138.236
21
-138.721
0
LINE
8
Black
10
138.236
20
-138.721
11
138.236
21
-139.007
0
LINE
8
Black
10
140.236
20
-136.007
11
140.521
21
-136.007
0
LINE
8
Black
10
140.521
20
-136.007
11
140.807
21
-136.15
0
LINE
8
Black
10
140.807
20
-136.15
11
140.95
21
-136.293
0
LINE
8
Black
10
140.95
20
-136.293
11
141.093
21
-136.579
0
LINE
8
Black
10
141.093
20
-136.579
11
141.236
21
-137.15
0
LINE
8
Black
10
141.236
20
-137.15
11
141.236
21
-137.864
0
LINE
8
Black
10
141.236
20
-137.864
11
141.093
21
-138.436
0
LINE
8
Black
10
141.093
20
-138.436
11
140.95
21
-138.721
0
LINE
8
Black
10
140.95
20
-138.721
11
140.807
21
-138.864
0
LINE
8
Black
10
140.807
20
-138.864
11
140.521
21
-139.007
0
LINE
8
Black
10
140.521
20
-139.007
11
140.236
21
-139.007
0
LINE
8
Black
10
140.236
20
-139.007
11
139.95
21
-138.864
0
LINE
8
Black
10
139.95
20
-138.864
11
139.807
21
-138.721
0
LINE
8
Black
10
139.807
20
-138.721
11
139.664
21
-138.436
0
LINE
8
Black
10
139.664
20
-138.436
11
139.521
21
-137.864
0
LINE
8
Black
10
139.521
20
-137.864
11
139.521
21
-137.15
0
LINE
8
Black
10
139.521
20
-137.15
11
139.664
21
-136.579
0
LINE
8
Black
10
139.664
20
-136.579
11
139.807
21
-136.293
0
LINE
8
Black
10
139.807
20
-136.293
11
139.95
21
-136.15
0
LINE
8
Black
10
139.95
20
-136.15
11
140.236
21
-136.007
0
LINE
8
Black
10
142.236
20
-136.007
11
144.093
21
-136.007
0
LINE
8
Black
10
144.093
20
-136.007
11
143.093
21
-137.15
0
LINE
8
Black
10
143.093
20
-137.15
11
143.521
21
-137.15
0
LINE
8
Black
10
143.521
20
-137.15
11
143.807
21
-137.293
0
LINE
8
Black
10
143.807
20
-137.293
11
143.95
21
-137.436
0
LINE
8
Black
10
143.95
20
-137.436
11
144.093
21
-137.721
0
LINE
8
Black
10
144.093
20
-137.721
11
144.093
21
-138.436
0
LINE
8
Black
10
144.093
20
-138.436
11
143.95
21
-138.721
0
LINE
8
Black
10
143.95
20
-138.721
11
143.807
21
-138.864
0
LINE
8
Black
10
143.807
20
-138.864
11
143.521
21
-139.007
0
LINE
8
Black
10
143.521
20
-139.007
11
142.664
21
-139.007
0
LINE
8
Black
10
142.664
20
-139.007
11
142.379
21
-138.864
0
LINE
8
Black
10
142.379
20
-138.864
11
142.236
21
-138.721
0
LINE
8
Black
10
146.95
20
-139.007
11
145.236
21
-139.007
0
LINE
8
Black
10
146.093
20
-139.007
11
146.093
21
-136.007
0
LINE
8
Black
10
146.093
20
-136.007
11
145.807
21
-136.436
0
LINE
8
Black
10
145.807
20
-136.436
11
145.521
21
-136.721
0
LINE
8
Black
10
145.521
20
-136.721
11
145.236
21
-136.864
0
LINE
8
Black
10
148.093
20
-136.007
11
148.093
21
-136.579
0
LINE
8
Black
10
149.236
20
-136.007
11
149.236
21
-136.579
0
LINE
8
Black
10
153.664
20
-140.15
11
153.521
21
-140.007
0
LINE
8
Black
10
153.521
20
-140.007
11
153.236
21
-139.579
0
LINE
8
Black
10
153.236
20
-139.579
11
153.093
21
-139.293
0
LINE
8
Black
10
153.093
20
-139.293
11
152.95
21
-138.864
0
LINE
8
Black
10
152.95
20
-138.864
11
152.807
21
-138.15
0
LINE
8
Black
10
152.807
20
-138.15
11
152.807
21
-137.579
0
LINE
8
Black
10
152.807
20
-137.579
11
152.95
21
-136.864
0
LINE
8
Black
10
152.95
20
-136.864
11
153.093
21
-136.436
0
LINE
8
Black
10
153.093
20
-136.436
11
153.236
21
-136.15
0
LINE
8
Black
10
153.236
20
-136.15
11
153.521
21
-135.721
0
LINE
8
Black
10
153.521
20
-135.721
11
153.664
21
-135.579
0
LINE
8
Black
10
156.379
20
-139.007
11
154.664
21
-139.007
0
LINE
8
Black
10
155.521
20
-139.007
11
155.521
21
-136.007
0
LINE
8
Black
10
155.521
20
-136.007
11
155.236
21
-136.436
0
LINE
8
Black
10
155.236
20
-136.436
11
154.95
21
-136.721
0
LINE
8
Black
10
154.95
20
-136.721
11
154.664
21
-136.864
0
LINE
8
Black
10
158.95
20
-136.007
11
158.379
21
-136.007
0
LINE
8
Black
10
158.379
20
-136.007
11
158.093
21
-136.15
0
LINE
8
Black
10
158.093
20
-136.15
11
157.95
21
-136.293
0
LINE
8
Black
10
157.95
20
-136.293
11
157.664
21
-136.721
0
LINE
8
Black
10
157.664
20
-136.721
11
157.521
21
-137.293
0
LINE
8
Black
10
157.521
20
-137.293
11
157.521
21
-138.436
0
LINE
8
Black
10
157.521
20
-138.436
11
157.664
21
-138.721
0
LINE
8
Black
10
157.664
20
-138.721
11
157.807
21
-138.864
0
LINE
8
Black
10
157.807
20
-138.864
11
158.093
21
-139.007
0
LINE
8
Black
10
158.093
20
-139.007
11
158.664
21
-139.007
0
LINE
8
Black
10
158.664
20
-139.007
11
158.95
21
-138.864
0
LINE
8
Black
10
158.95
20
-138.864
11
159.093
21
-138.721
0
LINE
8
Black
10
159.093
20
-138.721
11
159.236
21
-138.436
0
LINE
8
Black
10
159.236
20
-138.436
11
159.236
21
-137.721
0
LINE
8
Black
10
159.236
20
-137.721
11
159.093
21
-137.436
0
LINE
8
Black
10
159.093
20
-137.436
11
158.95
21
-137.293
0
LINE
8
Black
10
158.95
20
-137.293
11
158.664
21
-137.15
0
LINE
8
Black
10
158.664
20
-137.15
11
158.093
21
-137.15
0
LINE
8
Black
10
158.093
20
-137.15
11
157.807
21
-137.293
0
LINE
8
Black
10
157.807
20
-137.293
11
157.664
21
-137.436
0
LINE
8
Black
10
157.664
20
-137.436
11
157.521
21
-137.721
0
LINE
8
Black
10
162.807
20
-139.007
11
162.807
21
-136.007
0
LINE
8
Black
10
164.093
20
-139.007
11
164.093
21
-137.436
0
LINE
8
Black
10
164.093
20
-137.436
11
163.95
21
-137.15
0
LINE
8
Black
10
163.95
20
-137.15
11
163.664
21
-137.007
0
LINE
8
Black
10
163.664
20
-137.007
11
163.236
21
-137.007
0
LINE
8
Black
10
163.236
20
-137.007
11
162.95
21
-137.15
0
LINE
8
Black
10
162.95
20
-137.15
11
162.807
21
-137.293
0
LINE
8
Black
10
165.95
20
-139.007
11
165.664
21
-138.864
0
LINE
8
Black
10
165.664
20
-138.864
11
165.521
21
-138.721
0
LINE
8
Black
10
165.521
20
-138.721
11
165.379
21
-138.436
0
LINE
8
Black
10
165.379
20
-138.436
11
165.379
21
-137.579
0
LINE
8
Black
10
165.379
20
-137.579
11
165.521
21
-137.293
0
LINE
8
Black
10
165.521
20
-137.293
11
165.664
21
-137.15
0
LINE
8
Black
10
165.664
20
-137.15
11
165.95
21
-137.007
0
LINE
8
Black
10
165.95
20
-137.007
11
166.379
21
-137.007
0
LINE
8
Black
10
166.379
20
-137.007
11
166.664
21
-137.15
0
LINE
8
Black
10
166.664
20
-137.15
11
166.807
21
-137.293
0
LINE
8
Black
10
166.807
20
-137.293
11
166.95
21
-137.579
0
LINE
8
Black
10
166.95
20
-137.579
11
166.95
21
-138.436
0
LINE
8
Black
10
166.95
20
-138.436
11
166.807
21
-138.721
0
LINE
8
Black
10
166.807
20
-138.721
11
166.664
21
-138.864
0
LINE
8
Black
10
166.664
20
-138.864
11
166.379
21
-139.007
0
LINE
8
Black
10
166.379
20
-139.007
11
165.95
21
-139.007
0
LINE
8
Black
10
168.664
20
-139.007
11
168.379
21
-138.864
0
LINE
8
Black
10
168.379
20
-138.864
11
168.236
21
-138.579
0
LINE
8
Black
10
168.236
20
-138.579
11
168.236
21
-136.007
0
LINE
8
Black
10
170.95
20
-138.864
11
170.664
21
-139.007
0
LINE
8
Black
10
170.664
20
-139.007
11
170.093
21
-139.007
0
LINE
8
Black
10
170.093
20
-139.007
11
169.807
21
-138.864
0
LINE
8
Black
10
169.807
20
-138.864
11
169.664
21
-138.579
0
LINE
8
Black
10
169.664
20
-138.579
11
169.664
21
-137.436
0
LINE
8
Black
10
169.664
20
-137.436
11
169.807
21
-137.15
0
LINE
8
Black
10
169.807
20
-137.15
11
170.093
21
-137.007
0
LINE
8
Black
10
170.093
20
-137.007
11
170.664
21
-137.007
0
LINE
8
Black
10
170.664
20
-137.007
11
170.95
21
-137.15
0
LINE
8
Black
10
170.95
20
-137.15
11
171.093
21
-137.436
0
LINE
8
Black
10
171.093
20
-137.436
11
171.093
21
-137.721
0
LINE
8
Black
10
171.093
20
-137.721
11
169.664
21
-138.007
0
LINE
8
Black
10
172.236
20
-138.864
11
172.521
21
-139.007
0
LINE
8
Black
10
172.521
20
-139.007
11
173.093
21
-139.007
0
LINE
8
Black
10
173.093
20
-139.007
11
173.379
21
-138.864
0
LINE
8
Black
10
173.379
20
-138.864
11
173.521
21
-138.579
0
LINE
8
Black
10
173.521
20
-138.579
11
173.521
21
-138.436
0
LINE
8
Black
10
173.521
20
-138.436
11
173.379
21
-138.15
0
LINE
8
Black
10
173.379
20
-138.15
11
173.093
21
-138.007
0
LINE
8
Black
10
173.093
20
-138.007
11
172.664
21
-138.007
0
LINE
8
Black
10
172.664
20
-138.007
11
172.379
21
-137.864
0
LINE
8
Black
10
172.379
20
-137.864
11
172.236
21
-137.579
0
LINE
8
Black
10
172.236
20
-137.579
11
172.236
21
-137.436
0
LINE
8
Black
10
172.236
20
-137.436
11
172.379
21
-137.15
0
LINE
8
Black
10
172.379
20
-137.15
11
172.664
21
-137.007
0
LINE
8
Black
10
172.664
20
-137.007
11
173.093
21
-137.007
0
LINE
8
Black
10
173.093
20
-137.007
11
173.379
21
-137.15
0
LINE
8
Black
10
174.521
20
-140.15
11
174.664
21
-140.007
0
LINE
8
Black
10
174.664
20
-140.007
11
174.95
21
-139.579
0
LINE
8
Black
10
174.95
20
-139.579
11
175.093
21
-139.293
0
LINE
8
Black
10
175.093
20
-139.293
11
175.236
21
-138.864
0
LINE
8
Black
10
175.236
20
-138.864
11
175.379
21
-138.15
0
LINE
8
Black
10
175.379
20
-138.15
11
175.379
21
-137.579
0
LINE
8
Black
10
175.379
20
-137.579
11
175.236
21
-136.864
0
LINE
8
Black
10
175.236
20
-136.864
11
175.093
21
-136.436
0
LINE
8
Black
10
175.093
20
-136.436
11
174.95
21
-136.15
0
LINE
8
Black
10
174.95
20
-136.15
11
174.664
21
-135.721
0
LINE
8
Black
10
174.664
20
-135.721
11
174.521
21
-135.579
0
CIRCLE
8
Black
10
106.5
20
-141.61
40
0.45
0
LINE
8
Black
10
110.236
20
-139.967
11
110.521
21
-139.967
0
LINE
8
Black
10
110.521
20
-139.967
11
110.807
21
-140.11
0
LINE
8
Black
10
110.807
20
-140.11
11
110.95
21
-140.253
0
LINE
8
Black
10
110.95
20
-140.253
11
111.093
21
-140.539
0
LINE
8
Black
10
111.093
20
-140.539
11
111.236
21
-141.11
0
LINE
8
Black
10
111.236
20
-141.11
11
111.236
21
-141.824
0
LINE
8
Black
10
111.236
20
-141.824
11
111.093
21
-142.396
0
LINE
8
Black
10
111.093
20
-142.396
11
110.95
21
-142.681
0
LINE
8
Black
10
110.95
20
-142.681
11
110.807
21
-142.824
0
LINE
8
Black
10
110.807
20
-142.824
11
110.521
21
-142.967
0
LINE
8
Black
10
110.521
20
-142.967
11
110.236
21
-142.967
0
LINE
8
Black
10
110.236
20
-142.967
11
109.95
21
-142.824
0
LINE
8
Black
10
109.95
20
-142.824
11
109.807
21
-142.681
0
LINE
8
Black
10
109.807
20
-142.681
11
109.664
21
-142.396
0
LINE
8
Black
10
109.664
20
-142.396
11
109.521
21
-141.824
0
LINE
8
Black
10
109.521
20
-141.824
11
109.521
21
-141.11
0
LINE
8
Black
10
109.521
20
-141.11
11
109.664
21
-140.539
0
LINE
8
Black
10
109.664
20
-140.539
11
109.807
21
-140.253
0
LINE
8
Black
10
109.807
20
-140.253
11
109.95
21
-140.11
0
LINE
8
Black
10
109.95
20
-140.11
11
110.236
21
-139.967
0
LINE
8
Black
10
112.521
20
-142.681
11
112.664
21
-142.824
0
LINE
8
Black
10
112.664
20
-142.824
11
112.521
21
-142.967
0
LINE
8
Black
10
112.521
20
-142.967
11
112.379
21
-142.824
0
LINE
8
Black
10
112.379
20
-142.824
11
112.521
21
-142.681
0
LINE
8
Black
10
112.521
20
-142.681
11
112.521
21
-142.967
0
LINE
8
Black
10
114.093
20
-142.967
11
114.664
21
-142.967
0
LINE
8
Black
10
114.664
20
-142.967
11
114.95
21
-142.824
0
LINE
8
Black
10
114.95
20
-142.824
11
115.093
21
-142.681
0
LINE
8
Black
10
115.093
20
-142.681
11
115.379
21
-142.253
0
LINE
8
Black
10
115.379
20
-142.253
11
115.521
21
-141.681
0
LINE
8
Black
10
115.521
20
-141.681
11
115.521
21
-140.539
0
LINE
8
Black
10
115.521
20
-140.539
11
115.379
21
-140.253
0
LINE
8
Black
10
115.379
20
-140.253
11
115.236
21
-140.11
0
LINE
8
Black
10
115.236
20
-140.11
11
114.95
21
-139.967
0
LINE
8
Black
10
114.95
20
-139.967
11
114.379
21
-139.967
0
LINE
8
Black
10
114.379
20
-139.967
11
114.093
21
-140.11
0
LINE
8
Black
10
114.093
20
-140.11
11
113.95
21
-140.253
0
LINE
8
Black
10
113.95
20
-140.253
11
113.807
21
-140.539
0
LINE
8
Black
10
113.807
20
-140.539
11
113.807
21
-141.253
0
LINE
8
Black
10
113.807
20
-141.253
11
113.95
21
-141.539
0
LINE
8
Black
10
113.95
20
-141.539
11
114.093
21
-141.681
0
LINE
8
Black
10
114.093
20
-141.681
11
114.379
21
-141.824
0
LINE
8
Black
10
114.379
20
-141.824
11
114.95
21
-141.824
0
LINE
8
Black
10
114.95
20
-141.824
11
115.236
21
-141.681
0
LINE
8
Black
10
115.236
20
-141.681
11
115.379
21
-141.539
0
LINE
8
Black
10
115.379
20
-141.539
11
115.521
21
-141.253
0
LINE
8
Black
10
117.379
20
-139.967
11
117.664
21
-139.967
0
LINE
8
Black
10
117.664
20
-139.967
11
117.95
21
-140.11
0
LINE
8
Black
10
117.95
20
-140.11
11
118.093
21
-140.253
0
LINE
8
Black
10
118.093
20
-140.253
11
118.236
21
-140.539
0
LINE
8
Black
10
118.236
20
-140.539
11
118.379
21
-141.11
0
LINE
8
Black
10
118.379
20
-141.11
11
118.379
21
-141.824
0
LINE
8
Black
10
118.379
20
-141.824
11
118.236
21
-142.396
0
LINE
8
Black
10
118.236
20
-142.396
11
118.093
21
-142.681
0
LINE
8
Black
10
118.093
20
-142.681
11
117.95
21
-142.824
0
LINE
8
Black
10
117.95
20
-142.824
11
117.664
21
-142.967
0
LINE
8
Black
10
117.664
20
-142.967
11
117.379
21
-142.967
0
LINE
8
Black
10
117.379
20
-142.967
11
117.093
21
-142.824
0
LINE
8
Black
10
117.093
20
-142.824
11
116.95
21
-142.681
0
LINE
8
Black
10
116.95
20
-142.681
11
116.807
21
-142.396
0
LINE
8
Black
10
116.807
20
-142.396
11
116.664
21
-141.824
0
LINE
8
Black
10
116.664
20
-141.824
11
116.664
21
-141.11
0
LINE
8
Black
10
116.664
20
-141.11
11
116.807
21
-140.539
0
LINE
8
Black
10
116.807
20
-140.539
11
116.95
21
-140.253
0
LINE
8
Black
10
116.95
20
-140.253
11
117.093
21
-140.11
0
LINE
8
Black
10
117.093
20
-140.11
11
117.379
21
-139.967
0
LINE
8
Black
10
119.664
20
-142.967
11
119.664
21
-140.967
0
LINE
8
Black
10
119.664
20
-141.253
11
119.807
21
-141.11
0
LINE
8
Black
10
119.807
20
-141.11
11
120.093
21
-140.967
0
LINE
8
Black
10
120.093
20
-140.967
11
120.521
21
-140.967
0
LINE
8
Black
10
120.521
20
-140.967
11
120.807
21
-141.11
0
LINE
8
Black
10
120.807
20
-141.11
11
120.95
21
-141.396
0
LINE
8
Black
10
120.95
20
-141.396
11
120.95
21
-142.967
0
LINE
8
Black
10
120.95
20
-141.396
11
121.093
21
-141.11
0
LINE
8
Black
10
121.093
20
-141.11
11
121.379
21
-140.967
0
LINE
8
Black
10
121.379
20
-140.967
11
121.807
21
-140.967
0
LINE
8
Black
10
121.807
20
-140.967
11
122.093
21
-141.11
0
LINE
8
Black
10
122.093
20
-141.11
11
122.236
21
-141.396
0
LINE
8
Black
10
122.236
20
-141.396
11
122.236
21
-142.967
0
LINE
8
Black
10
123.664
20
-142.967
11
123.664
21
-140.967
0
LINE
8
Black
10
123.664
20
-141.253
11
123.807
21
-141.11
0
LINE
8
Black
10
123.807
20
-141.11
11
124.093
21
-140.967
0
LINE
8
Black
10
124.093
20
-140.967
11
124.521
21
-140.967
0
LINE
8
Black
10
124.521
20
-140.967
11
124.807
21
-141.11
0
LINE
8
Black
10
124.807
20
-141.11
11
124.95
21
-141.396
0
LINE
8
Black
10
124.95
20
-141.396
11
124.95
21
-142.967
0
LINE
8
Black
10
124.95
20
-141.396
11
125.093
21
-141.11
0
LINE
8
Black
10
125.093
20
-141.11
11
125.379
21
-140.967
0
LINE
8
Black
10
125.379
20
-140.967
11
125.807
21
-140.967
0
LINE
8
Black
10
125.807
20
-140.967
11
126.093
21
-141.11
0
LINE
8
Black
10
126.093
20
-141.11
11
126.236
21
-141.396
0
LINE
8
Black
10
126.236
20
-141.396
11
126.236
21
-142.967
0
LINE
8
Black
10
132.093
20
-139.824
11
129.521
21
-143.681
0
LINE
8
Black
10
135.95
20
-139.967
11
136.236
21
-139.967
0
LINE
8
Black
10
136.236
20
-139.967
11
136.521
21
-140.11
0
LINE
8
Black
10
136.521
20
-140.11
11
136.664
21
-140.253
0
LINE
8
Black
10
136.664
20
-140.253
11
136.807
21
-140.539
0
LINE
8
Black
10
136.807
20
-140.539
11
136.95
21
-141.11
0
LINE
8
Black
10
136.95
20
-141.11
11
136.95
21
-141.824
0
LINE
8
Black
10
136.95
20
-141.824
11
136.807
21
-142.396
0
LINE
8
Black
10
136.807
20
-142.396
11
136.664
21
-142.681
0
LINE
8
Black
10
136.664
20
-142.681
11
136.521
21
-142.824
0
LINE
8
Black
10
136.521
20
-142.824
11
136.236
21
-142.967
0
LINE
8
Black
10
136.236
20
-142.967
11
135.95
21
-142.967
0
LINE
8
Black
10
135.95
20
-142.967
11
135.664
21
-142.824
0
LINE
8
Black
10
135.664
20
-142.824
11
135.521
21
-142.681
0
LINE
8
Black
10
135.521
20
-142.681
11
135.379
21
-142.396
0
LINE
8
Black
10
135.379
20
-142.396
11
135.236
21
-141.824
0
LINE
8
Black
10
135.236
20
-141.824
11
135.236
21
-141.11
0
LINE
8
Black
10
135.236
20
-141.11
11
135.379
21
-140.539
0
LINE
8
Black
10
135.379
20
-140.539
11
135.521
21
-140.253
0
LINE
8
Black
10
135.521
20
-140.253
11
135.664
21
-140.11
0
LINE
8
Black
10
135.664
20
-140.11
11
135.95
21
-139.967
0
LINE
8
Black
10
138.236
20
-142.681
11
138.379
21
-142.824
0
LINE
8
Black
10
138.379
20
-142.824
11
138.236
21
-142.967
0
LINE
8
Black
10
138.236
20
-142.967
11
138.093
21
-142.824
0
LINE
8
Black
10
138.093
20
-142.824
11
138.236
21
-142.681
0
LINE
8
Black
10
138.236
20
-142.681
11
138.236
21
-142.967
0
LINE
8
Black
10
140.236
20
-139.967
11
140.521
21
-139.967
0
LINE
8
Black
10
140.521
20
-139.967
11
140.807
21
-140.11
0
LINE
8
Black
10
140.807
20
-140.11
11
140.95
21
-140.253
0
LINE
8
Black
10
140.95
20
-140.253
11
141.093
21
-140.539
0
LINE
8
Black
10
141.093
20
-140.539
11
141.236
21
-141.11
0
LINE
8
Black
10
141.236
20
-141.11
11
141.236
21
-141.824
0
LINE
8
Black
10
141.236
20
-141.824
11
141.093
21
-142.396
0
LINE
8
Black
10
141.093
20
-142.396
11
140.95
21
-142.681
0
LINE
8
Black
10
140.95
20
-142.681
11
140.807
21
-142.824
0
LINE
8
Black
10
140.807
20
-142.824
11
140.521
21
-142.967
0
LINE
8
Black
10
140.521
20
-142.967
11
140.236
21
-142.967
0
LINE
8
Black
10
140.236
20
-142.967
11
139.95
21
-142.824
0
LINE
8
Black
10
139.95
20
-142.824
11
139.807
21
-142.681
0
LINE
8
Black
10
139.807
20
-142.681
11
139.664
21
-142.396
0
LINE
8
Black
10
139.664
20
-142.396
11
139.521
21
-141.824
0
LINE
8
Black
10
139.521
20
-141.824
11
139.521
21
-141.11
0
LINE
8
Black
10
139.521
20
-141.11
11
139.664
21
-140.539
0
LINE
8
Black
10
139.664
20
-140.539
11
139.807
21
-140.253
0
LINE
8
Black
10
139.807
20
-140.253
11
139.95
21
-140.11
0
LINE
8
Black
10
139.95
20
-140.11
11
140.236
21
-139.967
0
LINE
8
Black
10
142.236
20
-139.967
11
144.093
21
-139.967
0
LINE
8
Black
10
144.093
20
-139.967
11
143.093
21
-141.11
0
LINE
8
Black
10
143.093
20
-141.11
11
143.521
21
-141.11
0
LINE
8
Black
10
143.521
20
-141.11
11
143.807
21
-141.253
0
LINE
8
Black
10
143.807
20
-141.253
11
143.95
21
-141.396
0
LINE
8
Black
10
143.95
20
-141.396
11
144.093
21
-141.681
0
LINE
8
Black
10
144.093
20
-141.681
11
144.093
21
-142.396
0
LINE
8
Black
10
144.093
20
-142.396
11
143.95
21
-142.681
0
LINE
8
Black
10
143.95
20
-142.681
11
143.807
21
-142.824
0
LINE
8
Black
10
143.807
20
-142.824
11
143.521
21
-142.967
0
LINE
8
Black
10
143.521
20
-142.967
11
142.664
21
-142.967
0
LINE
8
Black
10
142.664
20
-142.967
11
142.379
21
-142.824
0
LINE
8
Black
10
142.379
20
-142.824
11
142.236
21
-142.681
0
LINE
8
Black
10
146.807
20
-139.967
11
145.379
21
-139.967
0
LINE
8
Black
10
145.379
20
-139.967
11
145.236
21
-141.396
0
LINE
8
Black
10
145.236
20
-141.396
11
145.379
21
-141.253
0
LINE
8
Black
10
145.379
20
-141.253
11
145.664
21
-141.11
0
LINE
8
Black
10
145.664
20
-141.11
11
146.379
21
-141.11
0
LINE
8
Black
10
146.379
20
-141.11
11
146.664
21
-141.253
0
LINE
8
Black
10
146.664
20
-141.253
11
146.807
21
-141.396
0
LINE
8
Black
10
146.807
20
-141.396
11
146.95
21
-141.681
0
LINE
8
Black
10
146.95
20
-141.681
11
146.95
21
-142.396
0
LINE
8
Black
10
146.95
20
-142.396
11
146.807
21
-142.681
0
LINE
8
Black
10
146.807
20
-142.681
11
146.664
21
-142.824
0
LINE
8
Black
10
146.664
20
-142.824
11
146.379
21
-142.967
0
LINE
8
Black
10
146.379
20
-142.967
11
145.664
21
-142.967
0
LINE
8
Black
10
145.664
20
-142.967
11
145.379
21
-142.824
0
LINE
8
Black
10
145.379
20
-142.824
11
145.236
21
-142.681
0
LINE
8
Black
10
148.093
20
-139.967
11
148.093
21
-140.539
0
LINE
8
Black
10
149.236
20
-139.967
11
149.236
21
-140.539
0
LINE
8
Black
10
153.664
20
-144.11
11
153.521
21
-143.967
0
LINE
8
Black
10
153.521
20
-143.967
11
153.236
21
-143.539
0
LINE
8
Black
10
153.236
20
-143.539
11
153.093
21
-143.253
0
LINE
8
Black
10
153.093
20
-143.253
11
152.95
21
-142.824
0
LINE
8
Black
10
152.95
20
-142.824
11
152.807
21
-142.11
0
LINE
8
Black
10
152.807
20
-142.11
11
152.807
21
-141.539
0
LINE
8
Black
10
152.807
20
-141.539
11
152.95
21
-140.824
0
LINE
8
Black
10
152.95
20
-140.824
11
153.093
21
-140.396
0
LINE
8
Black
10
153.093
20
-140.396
11
153.236
21
-140.11
0
LINE
8
Black
10
153.236
20
-140.11
11
153.521
21
-139.681
0
LINE
8
Black
10
153.521
20
-139.681
11
153.664
21
-139.539
0
LINE
8
Black
10
156.093
20
-140.967
11
156.093
21
-142.967
0
LINE
8
Black
10
155.379
20
-139.824
11
154.664
21
-141.967
0
LINE
8
Black
10
154.664
20
-141.967
11
156.521
21
-141.967
0
LINE
8
Black
10
159.95
20
-142.967
11
159.95
21
-139.967
0
LINE
8
Black
10
161.236
20
-142.967
11
161.236
21
-141.396
0
LINE
8
Black
10
161.236
20
-141.396
11
161.093
21
-141.11
0
LINE
8
Black
10
161.093
20
-141.11
11
160.807
21
-140.967
0
LINE
8
Black
10
160.807
20
-140.967
11
160.379
21
-140.967
0
LINE
8
Black
10
160.379
20
-140.967
11
160.093
21
-141.11
0
LINE
8
Black
10
160.093
20
-141.11
11
159.95
21
-141.253
0
LINE
8
Black
10
163.093
20
-142.967
11
162.807
21
-142.824
0
LINE
8
Black
10
162.807
20
-142.824
11
162.664
21
-142.681
0
LINE
8
Black
10
162.664
20
-142.681
11
162.521
21
-142.396
0
LINE
8
Black
10
162.521
20
-142.396
11
162.521
21
-141.539
0
LINE
8
Black
10
162.521
20
-141.539
11
162.664
21
-141.253
0
LINE
8
Black
10
162.664
20
-141.253
11
162.807
21
-141.11
0
LINE
8
Black
10
162.807
20
-141.11
11
163.093
21
-140.967
0
LINE
8
Black
10
163.093
20
-140.967
11
163.521
21
-140.967
0
LINE
8
Black
10
163.521
20
-140.967
11
163.807
21
-141.11
0
LINE
8
Black
10
163.807
20
-141.11
11
163.95
21
-141.253
0
LINE
8
Black
10
163.95
20
-141.253
11
164.093
21
-141.539
0
LINE
8
Black
10
164.093
20
-141.539
11
164.093
21
-142.396
0
LINE
8
Black
10
164.093
20
-142.396
11
163.95
21
-142.681
0
LINE
8
Black
10
163.95
20
-142.681
11
163.807
21
-142.824
0
LINE
8
Black
10
163.807
20
-142.824
11
163.521
21
-142.967
0
LINE
8
Black
10
163.521
20
-142.967
11
163.093
21
-142.967
0
LINE
8
Black
10
165.807
20
-142.967
11
165.521
21
-142.824
0
LINE
8
Black
10
165.521
20
-142.824
11
165.379
21
-142.539
0
LINE
8
Black
10
165.379
20
-142.539
11
165.379
21
-139.967
0
LINE
8
Black
10
168.093
20
-142.824
11
167.807
21
-142.967
0
LINE
8
Black
10
167.807
20
-142.967
11
167.236
21
-142.967
0
LINE
8
Black
10
167.236
20
-142.967
11
166.95
21
-142.824
0
LINE
8
Black
10
166.95
20
-142.824
11
166.807
21
-142.539
0
LINE
8
Black
10
166.807
20
-142.539
11
166.807
21
-141.396
0
LINE
8
Black
10
166.807
20
-141.396
11
166.95
21
-141.11
0
LINE
8
Black
10
166.95
20
-141.11
11
167.236
21
-140.967
0
LINE
8
Black
10
167.236
20
-140.967
11
167.807
21
-140.967
0
LINE
8
Black
10
167.807
20
-140.967
11
168.093
21
-141.11
0
LINE
8
Black
10
168.093
20
-141.11
11
168.236
21
-141.396
0
LINE
8
Black
10
168.236
20
-141.396
11
168.236
21
-141.681
0
LINE
8
Black
10
168.236
20
-141.681
11
166.807
21
-141.967
0
LINE
8
Black
10
169.379
20
-142.824
11
169.664
21
-142.967
0
LINE
8
Black
10
169.664
20
-142.967
11
170.236
21
-142.967
0
LINE
8
Black
10
170.236
20
-142.967
11
170.521
21
-142.824
0
LINE
8
Black
10
170.521
20
-142.824
11
170.664
21
-142.539
0
LINE
8
Black
10
170.664
20
-142.539
11
170.664
21
-142.396
0
LINE
8
Black
10
170.664
20
-142.396
11
170.521
21
-142.11
0
LINE
8
Black
10
170.521
20
-142.11
11
170.236
21
-141.967
0
LINE
8
Black
10
170.236
20
-141.967
11
169.807
21
-141.967
0
LINE
8
Black
10
169.807
20
-141.967
11
169.521
21
-141.824
0
LINE
8
Black
10
169.521
20
-141.824
11
169.379
21
-141.539
0
LINE
8
Black
10
169.379
20
-141.539
11
169.379
21
-141.396
0
LINE
8
Black
10
169.379
20
-141.396
11
169.521
21
-141.11
0
LINE
8
Black
10
169.521
20
-141.11
11
169.807
21
-140.967
0
LINE
8
Black
10
169.807
20
-140.967
11
170.236
21
-140.967
0
LINE
8
Black
10
170.236
20
-140.967
11
170.521
21
-141.11
0
LINE
8
Black
10
171.664
20
-144.11
11
171.807
21
-143.967
0
LINE
8
Black
10
171.807
20
-143.967
11
172.093
21
-143.539
0
LINE
8
Black
10
172.093
20
-143.539
11
172.236
21
-143.253
0
LINE
8
Black
10
172.236
20
-143.253
11
172.379
21
-142.824
0
LINE
8
Black
10
172.379
20
-142.824
11
172.521
21
-142.11
0
LINE
8
Black
10
172.521
20
-142.11
11
172.521
21
-141.539
0
LINE
8
Black
10
172.521
20
-141.539
11
172.379
21
-140.824
0
LINE
8
Black
10
172.379
20
-140.824
11
172.236
21
-140.396
0
LINE
8
Black
10
172.236
20
-140.396
11
172.093
21
-140.11
0
LINE
8
Black
10
172.093
20
-140.11
11
171.807
21
-139.681
0
LINE
8
Black
10
171.807
20
-139.681
11
171.664
21
-139.539
0
LINE
8
Black
10
106.45
20
-145.07
11
106.45
21
-146.07
0
LINE
8
Black
10
105.95
20
-145.57
11
106.95
21
-145.57
0
LINE
8
Black
10
111.236
20
-146.927
11
109.521
21
-146.927
0
LINE
8
Black
10
110.379
20
-146.927
11
110.379
21
-143.927
0
LINE
8
Black
10
110.379
20
-143.927
11
110.093
21
-144.356
0
LINE
8
Black
10
110.093
20
-144.356
11
109.807
21
-144.641
0
LINE
8
Black
10
109.807
20
-144.641
11
109.521
21
-144.784
0
LINE
8
Black
10
112.521
20
-146.641
11
112.664
21
-146.784
0
LINE
8
Black
10
112.664
20
-146.784
11
112.521
21
-146.927
0
LINE
8
Black
10
112.521
20
-146.927
11
112.379
21
-146.784
0
LINE
8
Black
10
112.379
20
-146.784
11
112.521
21
-146.641
0
LINE
8
Black
10
112.521
20
-146.641
11
112.521
21
-146.927
0
LINE
8
Black
10
114.521
20
-143.927
11
114.807
21
-143.927
0
LINE
8
Black
10
114.807
20
-143.927
11
115.093
21
-144.07
0
LINE
8
Black
10
115.093
20
-144.07
11
115.236
21
-144.213
0
LINE
8
Black
10
115.236
20
-144.213
11
115.379
21
-144.499
0
LINE
8
Black
10
115.379
20
-144.499
11
115.521
21
-145.07
0
LINE
8
Black
10
115.521
20
-145.07
11
115.521
21
-145.784
0
LINE
8
Black
10
115.521
20
-145.784
11
115.379
21
-146.356
0
LINE
8
Black
10
115.379
20
-146.356
11
115.236
21
-146.641
0
LINE
8
Black
10
115.236
20
-146.641
11
115.093
21
-146.784
0
LINE
8
Black
10
115.093
20
-146.784
11
114.807
21
-146.927
0
LINE
8
Black
10
114.807
20
-146.927
11
114.521
21
-146.927
0
LINE
8
Black
10
114.521
20
-146.927
11
114.236
21
-146.784
0
LINE
8
Black
10
114.236
20
-146.784
11
114.093
21
-146.641
0
LINE
8
Black
10
114.093
20
-146.641
11
113.95
21
-146.356
0
LINE
8
Black
10
113.95
20
-146.356
11
113.807
21
-145.784
0
LINE
8
Black
10
113.807
20
-145.784
11
113.807
21
-145.07
0
LINE
8
Black
10
113.807
20
-145.07
11
113.95
21
-144.499
0
LINE
8
Black
10
113.95
20
-144.499
11
114.093
21
-144.213
0
LINE
8
Black
10
114.093
20
-144.213
11
114.236
21
-144.07
0
LINE
8
Black
10
114.236
20
-144.07
11
114.521
21
-143.927
0
LINE
8
Black
10
117.379
20
-143.927
11
117.664
21
-143.927
0
LINE
8
Black
10
117.664
20
-143.927
11
117.95
21
-144.07
0
LINE
8
Black
10
117.95
20
-144.07
11
118.093
21
-144.213
0
LINE
8
Black
10
118.093
20
-144.213
11
118.236
21
-144.499
0
LINE
8
Black
10
118.236
20
-144.499
11
118.379
21
-145.07
0
LINE
8
Black
10
118.379
20
-145.07
11
118.379
21
-145.784
0
LINE
8
Black
10
118.379
20
-145.784
11
118.236
21
-146.356
0
LINE
8
Black
10
118.236
20
-146.356
11
118.093
21
-146.641
0
LINE
8
Black
10
118.093
20
-146.641
11
117.95
21
-146.784
0
LINE
8
Black
10
117.95
20
-146.784
11
117.664
21
-146.927
0
LINE
8
Black
10
117.664
20
-146.927
11
117.379
21
-146.927
0
LINE
8
Black
10
117.379
20
-146.927
11
117.093
21
-146.784
0
LINE
8
Black
10
117.093
20
-146.784
11
116.95
21
-146.641
0
LINE
8
Black
10
116.95
20
-146.641
11
116.807
21
-146.356
0
LINE
8
Black
10
116.807
20
-146.356
11
116.664
21
-145.784
0
LINE
8
Black
10
116.664
20
-145.784
11
116.664
21
-145.07
0
LINE
8
Black
10
116.664
20
-145.07
11
116.807
21
-144.499
0
LINE
8
Black
10
116.807
20
-144.499
11
116.95
21
-144.213
0
LINE
8
Black
10
116.95
20
-144.213
11
117.093
21
-144.07
0
LINE
8
Black
10
117.093
20
-144.07
11
117.379
21
-143.927
0
LINE
8
Black
10
119.664
20
-146.927
11
119.664
21
-144.927
0
LINE
8
Black
10
119.664
20
-145.213
11
119.807
21
-145.07
0
LINE
8
Black
10
119.807
20
-145.07
11
120.093
21
-144.927
0
LINE
8
Black
10
120.093
20
-144.927
11
120.521
21
-144.927
0
LINE
8
Black
10
120.521
20
-144.927
11
120.807
21
-145.07
0
LINE
8
Black
10
120.807
20
-145.07
11
120.95
21
-145.356
0
LINE
8
Black
10
120.95
20
-145.356
11
120.95
21
-146.927
0
LINE
8
Black
10
120.95
20
-145.356
11
121.093
21
-145.07
0
LINE
8
Black
10
121.093
20
-145.07
11
121.379
21
-144.927
0
LINE
8
Black
10
121.379
20
-144.927
11
121.807
21
-144.927
0
LINE
8
Black
10
121.807
20
-144.927
11
122.093
21
-145.07
0
LINE
8
Black
10
122.093
20
-145.07
11
122.236
21
-145.356
0
LINE
8
Black
10
122.236
20
-145.356
11
122.236
21
-146.927
0
LINE
8
Black
10
123.664
20
-146.927
11
123.664
21
-144.927
0
LINE
8
Black
10
123.664
20
-145.213
11
123.807
21
-145.07
0
LINE
8
Black
10
123.807
20
-145.07
11
124.093
21
-144.927
0
LINE
8
Black
10
124.093
20
-144.927
11
124.521
21
-144.927
0
LINE
8
Black
10
124.521
20
-144.927
11
124.807
21
-145.07
0
LINE
8
Black
10
124.807
20
-145.07
11
124.95
21
-145.356
0
LINE
8
Black
10
124.95
20
-145.356
11
124.95
21
-146.927
0
LINE
8
Black
10
124.95
20
-145.356
11
125.093
21
-145.07
0
LINE
8
Black
10
125.093
20
-145.07
11
125.379
21
-144.927
0
LINE
8
Black
10
125.379
20
-144.927
11
125.807
21
-144.927
0
LINE
8
Black
10
125.807
20
-144.927
11
126.093
21
-145.07
0
LINE
8
Black
10
126.093
20
-145.07
11
126.236
21
-145.356
0
LINE
8
Black
10
126.236
20
-145.356
11
126.236
21
-146.927
0
LINE
8
Black
10
132.093
20
-143.784
11
129.521
21
-147.641
0
LINE
8
Black
10
135.95
20
-143.927
11
136.236
21
-143.927
0
LINE
8
Black
10
136.236
20
-143.927
11
136.521
21
-144.07
0
LINE
8
Black
10
136.521
20
-144.07
11
136.664
21
-144.213
0
LINE
8
Black
10
136.664
20
-144.213
11
136.807
21
-144.499
0
LINE
8
Black
10
136.807
20
-144.499
11
136.95
21
-145.07
0
LINE
8
Black
10
136.95
20
-145.07
11
136.95
21
-145.784
0
LINE
8
Black
10
136.95
20
-145.784
11
136.807
21
-146.356
0
LINE
8
Black
10
136.807
20
-146.356
11
136.664
21
-146.641
0
LINE
8
Black
10
136.664
20
-146.641
11
136.521
21
-146.784
0
LINE
8
Black
10
136.521
20
-146.784
11
136.236
21
-146.927
0
LINE
8
Black
10
136.236
20
-146.927
11
135.95
21
-146.927
0
LINE
8
Black
10
135.95
20
-146.927
11
135.664
21
-146.784
0
LINE
8
Black
10
135.664
20
-146.784
11
135.521
21
-146.641
0
LINE
8
Black
10
135.521
20
-146.641
11
135.379
21
-146.356
0
LINE
8
Black
10
135.379
20
-146.356
11
135.236
21
-145.784
0
LINE
8
Black
10
135.236
20
-145.784
11
135.236
21
-145.07
0
LINE
8
Black
10
135.236
20
-145.07
11
135.379
21
-144.499
0
LINE
8
Black
10
135.379
20
-144.499
11
135.521
21
-144.213
0
LINE
8
Black
10
135.521
20
-144.213
11
135.664
21
-144.07
0
LINE
8
Black
10
135.664
20
-144.07
11
135.95
21
-143.927
0
LINE
8
Black
10
138.236
20
-146.641
11
138.379
21
-146.784
0
LINE
8
Black
10
138.379
20
-146.784
11
138.236
21
-146.927
0
LINE
8
Black
10
138.236
20
-146.927
11
138.093
21
-146.784
0
LINE
8
Black
10
138.093
20
-146.784
11
138.236
21
-146.641
0
LINE
8
Black
10
138.236
20
-146.641
11
138.236
21
-146.927
0
LINE
8
Black
10
140.236
20
-143.927
11
140.521
21
-143.927
0
LINE
8
Black
10
140.521
20
-143.927
11
140.807
21
-144.07
0
LINE
8
Black
10
140.807
20
-144.07
11
140.95
21
-144.213
0
LINE
8
Black
10
140.95
20
-144.213
11
141.093
21
-144.499
0
LINE
8
Black
10
141.093
20
-144.499
11
141.236
21
-145.07
0
LINE
8
Black
10
141.236
20
-145.07
11
141.236
21
-145.784
0
LINE
8
Black
10
141.236
20
-145.784
11
141.093
21
-146.356
0
LINE
8
Black
10
141.093
20
-146.356
11
140.95
21
-146.641
0
LINE
8
Black
10
140.95
20
-146.641
11
140.807
21
-146.784
0
LINE
8
Black
10
140.807
20
-146.784
11
140.521
21
-146.927
0
LINE
8
Black
10
140.521
20
-146.927
11
140.236
21
-146.927
0
LINE
8
Black
10
140.236
20
-146.927
11
139.95
21
-146.784
0
LINE
8
Black
10
139.95
20
-146.784
11
139.807
21
-146.641
0
LINE
8
Black
10
139.807
20
-146.641
11
139.664
21
-146.356
0
LINE
8
Black
10
139.664
20
-146.356
11
139.521
21
-145.784
0
LINE
8
Black
10
139.521
20
-145.784
11
139.521
21
-145.07
0
LINE
8
Black
10
139.521
20
-145.07
11
139.664
21
-144.499
0
LINE
8
Black
10
139.664
20
-144.499
11
139.807
21
-144.213
0
LINE
8
Black
10
139.807
20
-144.213
11
139.95
21
-144.07
0
LINE
8
Black
10
139.95
20
-144.07
11
140.236
21
-143.927
0
LINE
8
Black
10
142.236
20
-143.927
11
144.093
21
-143.927
0
LINE
8
Black
10
144.093
20
-143.927
11
143.093
21
-145.07
0
LINE
8
Black
10
143.093
20
-145.07
11
143.521
21
-145.07
0
LINE
8
Black
10
143.521
20
-145.07
11
143.807
21
-145.213
0
LINE
8
Black
10
143.807
20
-145.213
11
143.95
21
-145.356
0
LINE
8
Black
10
143.95
20
-145.356
11
144.093
21
-145.641
0
LINE
8
Black
10
144.093
20
-145.641
11
144.093
21
-146.356
0
LINE
8
Black
10
144.093
20
-146.356
11
143.95
21
-146.641
0
LINE
8
Black
10
143.95
20
-146.641
11
143.807
21
-146.784
0
LINE
8
Black
10
143.807
20
-146.784
11
143.521
21
-146.927
0
LINE
8
Black
10
143.521
20
-146.927
11
142.664
21
-146.927
0
LINE
8
Black
10
142.664
20
-146.927
11
142.379
21
-146.784
0
LINE
8
Black
10
142.379
20
-146.784
11
142.236
21
-146.641
0
LINE
8
Black
10
145.521
20
-146.927
11
146.093
21
-146.927
0
LINE
8
Black
10
146.093
20
-146.927
11
146.379
21
-146.784
0
LINE
8
Black
10
146.379
20
-146.784
11
146.521
21
-146.641
0
LINE
8
Black
10
146.521
20
-146.641
11
146.807
21
-146.213
0
LINE
8
Black
10
146.807
20
-146.213
11
146.95
21
-145.641
0
LINE
8
Black
10
146.95
20
-145.641
11
146.95
21
-144.499
0
LINE
8
Black
10
146.95
20
-144.499
11
146.807
21
-144.213
0
LINE
8
Black
10
146.807
20
-144.213
11
146.664
21
-144.07
0
LINE
8
Black
10
146.664
20
-144.07
11
146.379
21
-143.927
0
LINE
8
Black
10
146.379
20
-143.927
11
145.807
21
-143.927
0
LINE
8
Black
10
145.807
20
-143.927
11
145.521
21
-144.07
0
LINE
8
Black
10
145.521
20
-144.07
11
145.379
21
-144.213
0
LINE
8
Black
10
145.379
20
-144.213
11
145.236
21
-144.499
0
LINE
8
Black
10
145.236
20
-144.499
11
145.236
21
-145.213
0
LINE
8
Black
10
145.236
20
-145.213
11
145.379
21
-145.499
0
LINE
8
Black
10
145.379
20
-145.499
11
145.521
21
-145.641
0
LINE
8
Black
10
145.521
20
-145.641
11
145.807
21
-145.784
0
LINE
8
Black
10
145.807
20
-145.784
11
146.379
21
-145.784
0
LINE
8
Black
10
146.379
20
-145.784
11
146.664
21
-145.641
0
LINE
8
Black
10
146.664
20
-145.641
11
146.807
21
-145.499
0
LINE
8
Black
10
146.807
20
-145.499
11
146.95
21
-145.213
0
LINE
8
Black
10
148.093
20
-143.927
11
148.093
21
-144.499
0
LINE
8
Black
10
149.236
20
-143.927
11
149.236
21
-144.499
0
LINE
8
Black
10
153.664
20
-148.07
11
153.521
21
-147.927
0
LINE
8
Black
10
153.521
20
-147.927
11
153.236
21
-147.499
0
LINE
8
Black
10
153.236
20
-147.499
11
153.093
21
-147.213
0
LINE
8
Black
10
153.093
20
-147.213
11
152.95
21
-146.784
0
LINE
8
Black
10
152.95
20
-146.784
11
152.807
21
-146.07
0
LINE
8
Black
10
152.807
20
-146.07
11
152.807
21
-145.499
0
LINE
8
Black
10
152.807
20
-145.499
11
152.95
21
-144.784
0
LINE
8
Black
10
152.95
20
-144.784
11
153.093
21
-144.356
0
LINE
8
Black
10
153.093
20
-144.356
11
153.236
21
-144.07
0
LINE
8
Black
10
153.236
20
-144.07
11
153.521
21
-143.641
0
LINE
8
Black
10
153.521
20
-143.641
11
153.664
21
-143.499
0
LINE
8
Black
10
154.664
20
-144.213
11
154.807
21
-144.07
0
LINE
8
Black
10
154.807
20
-144.07
11
155.093
21
-143.927
0
LINE
8
Black
10
155.093
20
-143.927
11
155.807
21
-143.927
0
LINE
8
Black
10
155.807
20
-143.927
11
156.093
21
-144.07
0
LINE
8
Black
10
156.093
20
-144.07
11
156.236
21
-144.213
0
LINE
8
Black
10
156.236
20
-144.213
11
156.379
21
-144.499
0
LINE
8
Black
10
156.379
20
-144.499
11
156.379
21
-144.784
0
LINE
8
Black
10
156.379
20
-144.784
11
156.236
21
-145.213
0
LINE
8
Black
10
156.236
20
-145.213
11
154.521
21
-146.927
0
LINE
8
Black
10
154.521
20
-146.927
11
156.379
21
-146.927
0
LINE
8
Black
10
159.95
20
-146.927
11
159.95
21
-143.927
0
LINE
8
Black
10
161.236
20
-146.927
11
161.236
21
-145.356
0
LINE
8
Black
10
161.236
20
-145.356
11
161.093
21
-145.07
0
LINE
8
Black
10
161.093
20
-145.07
11
160.807
21
-144.927
0
LINE
8
Black
10
160.807
20
-144.927
11
160.379
21
-144.927
0
LINE
8
Black
10
160.379
20
-144.927
11
160.093
21
-145.07
0
LINE
8
Black
10
160.093
20
-145.07
11
159.95
21
-145.213
0
LINE
8
Black
10
163.093
20
-146.927
11
162.807
21
-146.784
0
LINE
8
Black
10
162.807
20
-146.784
11
162.664
21
-146.641
0
LINE
8
Black
10
162.664
20
-146.641
11
162.521
21
-146.356
0
LINE
8
Black
10
162.521
20
-146.356
11
162.521
21
-145.499
0
LINE
8
Black
10
162.521
20
-145.499
11
162.664
21
-145.213
0
LINE
8
Black
10
162.664
20
-145.213
11
162.807
21
-145.07
0
LINE
8
Black
10
162.807
20
-145.07
11
163.093
21
-144.927
0
LINE
8
Black
10
163.093
20
-144.927
11
163.521
21
-144.927
0
LINE
8
Black
10
163.521
20
-144.927
11
163.807
21
-145.07
0
LINE
8
Black
10
163.807
20
-145.07
11
163.95
21
-145.213
0
LINE
8
Black
10
163.95
20
-145.213
11
164.093
21
-145.499
0
LINE
8
Black
10
164.093
20
-145.499
11
164.093
21
-146.356
0
LINE
8
Black
10
164.093
20
-146.356
11
163.95
21
-146.641
0
LINE
8
Black
10
163.95
20
-146.641
11
163.807
21
-146.784
0
LINE
8
Black
10
163.807
20
-146.784
11
163.521
21
-146.927
0
LINE
8
Black
10
163.521
20
-146.927
11
163.093
21
-146.927
0
LINE
8
Black
10
165.807
20
-146.927
11
165.521
21
-146.784
0
LINE
8
Black
10
165.521
20
-146.784
11
165.379
21
-146.499
0
LINE
8
Black
10
165.379
20
-146.499
11
165.379
21
-143.927
0
LINE
8
Black
10
168.093
20
-146.784
11
167.807
21
-146.927
0
LINE
8
Black
10
167.807
20
-146.927
11
167.236
21
-146.927
0
LINE
8
Black
10
167.236
20
-146.927
11
166.95
21
-146.784
0
LINE
8
Black
10
166.95
20
-146.784
11
166.807
21
-146.499
0
LINE
8
Black
10
166.807
20
-146.499
11
166.807
21
-145.356
0
LINE
8
Black
10
166.807
20
-145.356
11
166.95
21
-145.07
0
LINE
8
Black
10
166.95
20
-145.07
11
167.236
21
-144.927
0
LINE
8
Black
10
167.236
20
-144.927
11
167.807
21
-144.927
0
LINE
8
Black
10
167.807
20
-144.927
11
168.093
21
-145.07
0
LINE
8
Black
10
168.093
20
-145.07
11
168.236
21
-145.356
0
LINE
8
Black
10
168.236
20
-145.356
11
168.236
21
-145.641
0
LINE
8
Black
10
168.236
20
-145.641
11
166.807
21
-145.927
0
LINE
8
Black
10
169.379
20
-146.784
11
169.664
21
-146.927
0
LINE
8
Black
10
169.664
20
-146.927
11
170.236
21
-146.927
0
LINE
8
Black
10
170.236
20
-146.927
11
170.521
21
-146.784
0
LINE
8
Black
10
170.521
20
-146.784
11
170.664
21
-146.499
0
LINE
8
Black
10
170.664
20
-146.499
11
170.664
21
-146.356
0
LINE
8
Black
10
170.664
20
-146.356
11
170.521
21
-146.07
0
LINE
8
Black
10
170.521
20
-146.07
11
170.236
21
-145.927
0
LINE
8
Black
10
170.236
20
-145.927
11
169.807
21
-145.927
0
LINE
8
Black
10
169.807
20
-145.927
11
169.521
21
-145.784
0
LINE
8
Black
10
169.521
20
-145.784
11
169.379
21
-145.499
0
LINE
8
Black
10
169.379
20
-145.499
11
169.379
21
-145.356
0
LINE
8
Black
10
169.379
20
-145.356
11
169.521
21
-145.07
0
LINE
8
Black
10
169.521
20
-145.07
11
169.807
21
-144.927
0
LINE
8
Black
10
169.807
20
-144.927
11
170.236
21
-144.927
0
LINE
8
Black
10
170.236
20
-144.927
11
170.521
21
-145.07
0
LINE
8
Black
10
171.664
20
-148.07
11
171.807
21
-147.927
0
LINE
8
Black
10
171.807
20
-147.927
11
172.093
21
-147.499
0
LINE
8
Black
10
172.093
20
-147.499
11
172.236
21
-147.213
0
LINE
8
Black
10
172.236
20
-147.213
11
172.379
21
-146.784
0
LINE
8
Black
10
172.379
20
-146.784
11
172.521
21
-146.07
0
LINE
8
Black
10
172.521
20
-146.07
11
172.521
21
-145.499
0
LINE
8
Black
10
172.521
20
-145.499
11
172.379
21
-144.784
0
LINE
8
Black
10
172.379
20
-144.784
11
172.236
21
-144.356
0
LINE
8
Black
10
172.236
20
-144.356
11
172.093
21
-144.07
0
LINE
8
Black
10
172.093
20
-144.07
11
171.807
21
-143.641
0
LINE
8
Black
10
171.807
20
-143.641
11
171.664
21
-143.499
0
LINE
8
Black
10
106.803
20
-149.884
11
106.803
21
-149.176
0
LINE
8
Black
10
106.803
20
-149.176
11
106.096
21
-149.176
0
LINE
8
Black
10
106.096
20
-149.176
11
106.096
21
-149.884
0
LINE
8
Black
10
106.096
20
-149.884
11
106.803
21
-149.884
0
LINE
8
Black
10
111.236
20
-150.887
11
109.521
21
-150.887
0
LINE
8
Black
10
110.379
20
-150.887
11
110.379
21
-147.887
0
LINE
8
Black
10
110.379
20
-147.887
11
110.093
21
-148.316
0
LINE
8
Black
10
110.093
20
-148.316
11
109.807
21
-148.601
0
LINE
8
Black
10
109.807
20
-148.601
11
109.521
21
-148.744
0
LINE
8
Black
10
112.521
20
-150.601
11
112.664
21
-150.744
0
LINE
8
Black
10
112.664
20
-150.744
11
112.521
21
-150.887
0
LINE
8
Black
10
112.521
20
-150.887
11
112.379
21
-150.744
0
LINE
8
Black
10
112.379
20
-150.744
11
112.521
21
-150.601
0
LINE
8
Black
10
112.521
20
-150.601
11
112.521
21
-150.887
0
LINE
8
Black
10
114.521
20
-147.887
11
114.807
21
-147.887
0
LINE
8
Black
10
114.807
20
-147.887
11
115.093
21
-148.03
0
LINE
8
Black
10
115.093
20
-148.03
11
115.236
21
-148.173
0
LINE
8
Black
10
115.236
20
-148.173
11
115.379
21
-148.459
0
LINE
8
Black
10
115.379
20
-148.459
11
115.521
21
-149.03
0
LINE
8
Black
10
115.521
20
-149.03
11
115.521
21
-149.744
0
LINE
8
Black
10
115.521
20
-149.744
11
115.379
21
-150.316
0
LINE
8
Black
10
115.379
20
-150.316
11
115.236
21
-150.601
0
LINE
8
Black
10
115.236
20
-150.601
11
115.093
21
-150.744
0
LINE
8
Black
10
115.093
20
-150.744
11
114.807
21
-150.887
0
LINE
8
Black
10
114.807
20
-150.887
11
114.521
21
-150.887
0
LINE
8
Black
10
114.521
20
-150.887
11
114.236
21
-150.744
0
LINE
8
Black
10
114.236
20
-150.744
11
114.093
21
-150.601
0
LINE
8
Black
10
114.093
20
-150.601
11
113.95
21
-150.316
0
LINE
8
Black
10
113.95
20
-150.316
11
113.807
21
-149.744
0
LINE
8
Black
10
113.807
20
-149.744
11
113.807
21
-149.03
0
LINE
8
Black
10
113.807
20
-149.03
11
113.95
21
-148.459
0
LINE
8
Black
10
113.95
20
-148.459
11
114.093
21
-148.173
0
LINE
8
Black
10
114.093
20
-148.173
11
114.236
21
-148.03
0
LINE
8
Black
10
114.236
20
-148.03
11
114.521
21
-147.887
0
LINE
8
Black
10
117.379
20
-147.887
11
117.664
21
-147.887
0
LINE
8
Black
10
117.664
20
-147.887
11
117.95
21
-148.03
0
LINE
8
Black
10
117.95
20
-148.03
11
118.093
21
-148.173
0
LINE
8
Black
10
118.093
20
-148.173
11
118.236
21
-148.459
0
LINE
8
Black
10
118.236
20
-148.459
11
118.379
21
-149.03
0
LINE
8
Black
10
118.379
20
-149.03
11
118.379
21
-149.744
0
LINE
8
Black
10
118.379
20
-149.744
11
118.236
21
-150.316
0
LINE
8
Black
10
118.236
20
-150.316
11
118.093
21
-150.601
0
LINE
8
Black
10
118.093
20
-150.601
11
117.95
21
-150.744
0
LINE
8
Black
10
117.95
20
-150.744
11
117.664
21
-150.887
0
LINE
8
Black
10
117.664
20
-150.887
11
117.379
21
-150.887
0
LINE
8
Black
10
117.379
20
-150.887
11
117.093
21
-150.744
0
LINE
8
Black
10
117.093
20
-150.744
11
116.95
21
-150.601
0
LINE
8
Black
10
116.95
20
-150.601
11
116.807
21
-150.316
0
LINE
8
Black
10
116.807
20
-150.316
11
116.664
21
-149.744
0
LINE
8
Black
10
116.664
20
-149.744
11
116.664
21
-149.03
0
LINE
8
Black
10
116.664
20
-149.03
11
116.807
21
-148.459
0
LINE
8
Black
10
116.807
20
-148.459
11
116.95
21
-148.173
0
LINE
8
Black
10
116.95
20
-148.173
11
117.093
21
-148.03
0
LINE
8
Black
10
117.093
20
-148.03
11
117.379
21
-147.887
0
LINE
8
Black
10
119.664
20
-150.887
11
119.664
21
-148.887
0
LINE
8
Black
10
119.664
20
-149.173
11
119.807
21
-149.03
0
LINE
8
Black
10
119.807
20
-149.03
11
120.093
21
-148.887
0
LINE
8
Black
10
120.093
20
-148.887
11
120.521
21
-148.887
0
LINE
8
Black
10
120.521
20
-148.887
11
120.807
21
-149.03
0
LINE
8
Black
10
120.807
20
-149.03
11
120.95
21
-149.316
0
LINE
8
Black
10
120.95
20
-149.316
11
120.95
21
-150.887
0
LINE
8
Black
10
120.95
20
-149.316
11
121.093
21
-149.03
0
LINE
8
Black
10
121.093
20
-149.03
11
121.379
21
-148.887
0
LINE
8
Black
10
121.379
20
-148.887
11
121.807
21
-148.887
0
LINE
8
Black
10
121.807
20
-148.887
11
122.093
21
-149.03
0
LINE
8
Black
10
122.093
20
-149.03
11
122.236
21
-149.316
0
LINE
8
Black
10
122.236
20
-149.316
11
122.236
21
-150.887
0
LINE
8
Black
10
123.664
20
-150.887
11
123.664
21
-148.887
0
LINE
8
Black
10
123.664
20
-149.173
11
123.807
21
-149.03
0
LINE
8
Black
10
123.807
20
-149.03
11
124.093
21
-148.887
0
LINE
8
Black
10
124.093
20
-148.887
11
124.521
21
-148.887
0
LINE
8
Black
10
124.521
20
-148.887
11
124.807
21
-149.03
0
LINE
8
Black
10
124.807
20
-149.03
11
124.95
21
-149.316
0
LINE
8
Black
10
124.95
20
-149.316
11
124.95
21
-150.887
0
LINE
8
Black
10
124.95
20
-149.316
11
125.093
21
-149.03
0
LINE
8
Black
10
125.093
20
-149.03
11
125.379
21
-148.887
0
LINE
8
Black
10
125.379
20
-148.887
11
125.807
21
-148.887
0
LINE
8
Black
10
125.807
20
-148.887
11
126.093
21
-149.03
0
LINE
8
Black
10
126.093
20
-149.03
11
126.236
21
-149.316
0
LINE
8
Black
10
126.236
20
-149.316
11
126.236
21
-150.887
0
LINE
8
Black
10
132.093
20
-147.744
11
129.521
21
-151.601
0
LINE
8
Black
10
135.95
20
-147.887
11
136.236
21
-147.887
0
LINE
8
Black
10
136.236
20
-147.887
11
136.521
21
-148.03
0
LINE
8
Black
10
136.521
20
-148.03
11
136.664
21
-148.173
0
LINE
8
Black
10
136.664
20
-148.173
11
136.807
21
-148.459
0
LINE
8
Black
10
136.807
20
-148.459
11
136.95
21
-149.03
0
LINE
8
Black
10
136.95
20
-149.03
11
136.95
21
-149.744
0
LINE
8
Black
10
136.95
20
-149.744
11
136.807
21
-150.316
0
LINE
8
Black
10
136.807
20
-150.316
11
136.664
21
-150.601
0
LINE
8
Black
10
136.664
20
-150.601
11
136.521
21
-150.744
0
LINE
8
Black
10
136.521
20
-150.744
11
136.236
21
-150.887
0
LINE
8
Black
10
136.236
20
-150.887
11
135.95
21
-150.887
0
LINE
8
Black
10
135.95
20
-150.887
11
135.664
21
-150.744
0
LINE
8
Black
10
135.664
20
-150.744
11
135.521
21
-150.601
0
LINE
8
Black
10
135.521
20
-150.601
11
135.379
21
-150.316
0
LINE
8
Black
10
135.379
20
-150.316
11
135.236
21
-149.744
0
LINE
8
Black
10
135.236
20
-149.744
11
135.236
21
-149.03
0
LINE
8
Black
10
135.236
20
-149.03
11
135.379
21
-148.459
0
LINE
8
Black
10
135.379
20
-148.459
11
135.521
21
-148.173
0
LINE
8
Black
10
135.521
20
-148.173
11
135.664
21
-148.03
0
LINE
8
Black
10
135.664
20
-148.03
11
135.95
21
-147.887
0
LINE
8
Black
10
138.236
20
-150.601
11
138.379
21
-150.744
0
LINE
8
Black
10
138.379
20
-150.744
11
138.236
21
-150.887
0
LINE
8
Black
10
138.236
20
-150.887
11
138.093
21
-150.744
0
LINE
8
Black
10
138.093
20
-150.744
11
138.236
21
-150.601
0
LINE
8
Black
10
138.236
20
-150.601
11
138.236
21
-150.887
0
LINE
8
Black
10
140.236
20
-147.887
11
140.521
21
-147.887
0
LINE
8
Black
10
140.521
20
-147.887
11
140.807
21
-148.03
0
LINE
8
Black
10
140.807
20
-148.03
11
140.95
21
-148.173
0
LINE
8
Black
10
140.95
20
-148.173
11
141.093
21
-148.459
0
LINE
8
Black
10
141.093
20
-148.459
11
141.236
21
-149.03
0
LINE
8
Black
10
141.236
20
-149.03
11
141.236
21
-149.744
0
LINE
8
Black
10
141.236
20
-149.744
11
141.093
21
-150.316
0
LINE
8
Black
10
141.093
20
-150.316
11
140.95
21
-150.601
0
LINE
8
Black
10
140.95
20
-150.601
11
140.807
21
-150.744
0
LINE
8
Black
10
140.807
20
-150.744
11
140.521
21
-150.887
0
LINE
8
Black
10
140.521
20
-150.887
11
140.236
21
-150.887
0
LINE
8
Black
10
140.236
20
-150.887
11
139.95
21
-150.744
0
LINE
8
Black
10
139.95
20
-150.744
11
139.807
21
-150.601
0
LINE
8
Black
10
139.807
20
-150.601
11
139.664
21
-150.316
0
LINE
8
Black
10
139.664
20
-150.316
11
139.521
21
-149.744
0
LINE
8
Black
10
139.521
20
-149.744
11
139.521
21
-149.03
0
LINE
8
Black
10
139.521
20
-149.03
11
139.664
21
-148.459
0
LINE
8
Black
10
139.664
20
-148.459
11
139.807
21
-148.173
0
LINE
8
Black
10
139.807
20
-148.173
11
139.95
21
-148.03
0
LINE
8
Black
10
139.95
20
-148.03
11
140.236
21
-147.887
0
LINE
8
Black
10
142.236
20
-147.887
11
144.093
21
-147.887
0
LINE
8
Black
10
144.093
20
-147.887
11
143.093
21
-149.03
0
LINE
8
Black
10
143.093
20
-149.03
11
143.521
21
-149.03
0
LINE
8
Black
10
143.521
20
-149.03
11
143.807
21
-149.173
0
LINE
8
Black
10
143.807
20
-149.173
11
143.95
21
-149.316
0
LINE
8
Black
10
143.95
20
-149.316
11
144.093
21
-149.601
0
LINE
8
Black
10
144.093
20
-149.601
11
144.093
21
-150.316
0
LINE
8
Black
10
144.093
20
-150.316
11
143.95
21
-150.601
0
LINE
8
Black
10
143.95
20
-150.601
11
143.807
21
-150.744
0
LINE
8
Black
10
143.807
20
-150.744
11
143.521
21
-150.887
0
LINE
8
Black
10
143.521
20
-150.887
11
142.664
21
-150.887
0
LINE
8
Black
10
142.664
20
-150.887
11
142.379
21
-150.744
0
LINE
8
Black
10
142.379
20
-150.744
11
142.236
21
-150.601
0
LINE
8
Black
10
145.521
20
-150.887
11
146.093
21
-150.887
0
LINE
8
Black
10
146.093
20
-150.887
11
146.379
21
-150.744
0
LINE
8
Black
10
146.379
20
-150.744
11
146.521
21
-150.601
0
LINE
8
Black
10
146.521
20
-150.601
11
146.807
21
-150.173
0
LINE
8
Black
10
146.807
20
-150.173
11
146.95
21
-149.601
0
LINE
8
Black
10
146.95
20
-149.601
11
146.95
21
-148.459
0
LINE
8
Black
10
146.95
20
-148.459
11
146.807
21
-148.173
0
LINE
8
Black
10
146.807
20
-148.173
11
146.664
21
-148.03
0
LINE
8
Black
10
146.664
20
-148.03
11
146.379
21
-147.887
0
LINE
8
Black
10
146.379
20
-147.887
11
145.807
21
-147.887
0
LINE
8
Black
10
145.807
20
-147.887
11
145.521
21
-148.03
0
LINE
8
Black
10
145.521
20
-148.03
11
145.379
21
-148.173
0
LINE
8
Black
10
145.379
20
-148.173
11
145.236
21
-148.459
0
LINE
8
Black
10
145.236
20
-148.459
11
145.236
21
-149.173
0
LINE
8
Black
10
145.236
20
-149.173
11
145.379
21
-149.459
0
LINE
8
Black
10
145.379
20
-149.459
11
145.521
21
-149.601
0
LINE
8
Black
10
145.521
20
-149.601
11
145.807
21
-149.744
0
LINE
8
Black
10
145.807
20
-149.744
11
146.379
21
-149.744
0
LINE
8
Black
10
146.379
20
-149.744
11
146.664
21
-149.601
0
LINE
8
Black
10
146.664
20
-149.601
11
146.807
21
-149.459
0
LINE
8
Black
10
146.807
20
-149.459
11
146.95
21
-149.173
0
LINE
8
Black
10
148.093
20
-147.887
11
148.093
21
-148.459
0
LINE
8
Black
10
149.236
20
-147.887
11
149.236
21
-148.459
0
LINE
8
Black
10
153.664
20
-152.03
11
153.521
21
-151.887
0
LINE
8
Black
10
153.521
20
-151.887
11
153.236
21
-151.459
0
LINE
8
Black
10
153.236
20
-151.459
11
153.093
21
-151.173
0
LINE
8
Black
10
153.093
20
-151.173
11
152.95
21
-150.744
0
LINE
8
Black
10
152.95
20
-150.744
11
152.807
21
-150.03
0
LINE
8
Black
10
152.807
20
-150.03
11
152.807
21
-149.459
0
LINE
8
Black
10
152.807
20
-149.459
11
152.95
21
-148.744
0
LINE
8
Black
10
152.95
20
-148.744
11
153.093
21
-148.316
0
LINE
8
Black
10
153.093
20
-148.316
11
153.236
21
-148.03
0
LINE
8
Black
10
153.236
20
-148.03
11
153.521
21
-147.601
0
LINE
8
Black
10
153.521
20
-147.601
11
153.664
21
-147.459
0
LINE
8
Black
10
156.093
20
-148.887
11
156.093
21
-150.887
0
LINE
8
Black
10
155.379
20
-147.744
11
154.664
21
-149.887
0
LINE
8
Black
10
154.664
20
-149.887
11
156.521
21
-149.887
0
LINE
8
Black
10
159.95
20
-150.887
11
159.95
21
-147.887
0
LINE
8
Black
10
161.236
20
-150.887
11
161.236
21
-149.316
0
LINE
8
Black
10
161.236
20
-149.316
11
161.093
21
-149.03
0
LINE
8
Black
10
161.093
20
-149.03
11
160.807
21
-148.887
0
LINE
8
Black
10
160.807
20
-148.887
11
160.379
21
-148.887
0
LINE
8
Black
10
160.379
20
-148.887
11
160.093
21
-149.03
0
LINE
8
Black
10
160.093
20
-149.03
11
159.95
21
-149.173
0
LINE
8
Black
10
163.093
20
-150.887
11
162.807
21
-150.744
0
LINE
8
Black
10
162.807
20
-150.744
11
162.664
21
-150.601
0
LINE
8
Black
10
162.664
20
-150.601
11
162.521
21
-150.316
0
LINE
8
Black
10
162.521
20
-150.316
11
162.521
21
-149.459
0
LINE
8
Black
10
162.521
20
-149.459
11
162.664
21
-149.173
0
LINE
8
Black
10
162.664
20
-149.173
11
162.807
21
-149.03
0
LINE
8
Black
10
162.807
20
-149.03
11
163.093
21
-148.887
0
LINE
8
Black
10
163.093
20
-148.887
11
163.521
21
-148.887
0
LINE
8
Black
10
163.521
20
-148.887
11
163.807
21
-149.03
0
LINE
8
Black
10
163.807
20
-149.03
11
163.95
21
-149.173
0
LINE
8
Black
10
163.95
20
-149.173
11
164.093
21
-149.459
0
LINE
8
Black
10
164.093
20
-149.459
11
164.093
21
-150.316
0
LINE
8
Black
10
164.093
20
-150.316
11
163.95
21
-150.601
0
LINE
8
Black
10
163.95
20
-150.601
11
163.807
21
-150.744
0
LINE
8
Black
10
163.807
20
-150.744
11
163.521
21
-150.887
0
LINE
8
Black
10
163.521
20
-150.887
11
163.093
21
-150.887
0
LINE
8
Black
10
165.807
20
-150.887
11
165.521
21
-150.744
0
LINE
8
Black
10
165.521
20
-150.744
11
165.379
21
-150.459
0
LINE
8
Black
10
165.379
20
-150.459
11
165.379
21
-147.887
0
LINE
8
Black
10
168.093
20
-150.744
11
167.807
21
-150.887
0
LINE
8
Black
10
167.807
20
-150.887
11
167.236
21
-150.887
0
LINE
8
Black
10
167.236
20
-150.887
11
166.95
21
-150.744
0
LINE
8
Black
10
166.95
20
-150.744
11
166.807
21
-150.459
0
LINE
8
Black
10
166.807
20
-150.459
11
166.807
21
-149.316
0
LINE
8
Black
10
166.807
20
-149.316
11
166.95
21
-149.03
0
LINE
8
Black
10
166.95
20
-149.03
11
167.236
21
-148.887
0
LINE
8
Black
10
167.236
20
-148.887
11
167.807
21
-148.887
0
LINE
8
Black
10
167.807
20
-148.887
11
168.093
21
-149.03
0
LINE
8
Black
10
168.093
20
-149.03
11
168.236
21
-149.316
0
LINE
8
Black
10
168.236
20
-149.316
11
168.236
21
-149.601
0
LINE
8
Black
10
168.236
20
-149.601
11
166.807
21
-149.887
0
LINE
8
Black
10
169.379
20
-150.744
11
169.664
21
-150.887
0
LINE
8
Black
10
169.664
20
-150.887
11
170.236
21
-150.887
0
LINE
8
Black
10
170.236
20
-150.887
11
170.521
21
-150.744
0
LINE
8
Black
10
170.521
20
-150.744
11
170.664
21
-150.459
0
LINE
8
Black
10
170.664
20
-150.459
11
170.664
21
-150.316
0
LINE
8
Black
10
170.664
20
-150.316
11
170.521
21
-150.03
0
LINE
8
Black
10
170.521
20
-150.03
11
170.236
21
-149.887
0
LINE
8
Black
10
170.236
20
-149.887
11
169.807
21
-149.887
0
LINE
8
Black
10
169.807
20
-149.887
11
169.521
21
-149.744
0
LINE
8
Black
10
169.521
20
-149.744
11
169.379
21
-149.459
0
LINE
8
Black
10
169.379
20
-149.459
11
169.379
21
-149.316
0
LINE
8
Black
10
169.379
20
-149.316
11
169.521
21
-149.03
0
LINE
8
Black
10
169.521
20
-149.03
11
169.807
21
-148.887
0
LINE
8
Black
10
169.807
20
-148.887
11
170.236
21
-148.887
0
LINE
8
Black
10
170.236
20
-148.887
11
170.521
21
-149.03
0
LINE
8
Black
10
171.664
20
-152.03
11
171.807
21
-151.887
0
LINE
8
Black
10
171.807
20
-151.887
11
172.093
21
-151.459
0
LINE
8
Black
10
172.093
20
-151.459
11
172.236
21
-151.173
0
LINE
8
Black
10
172.236
20
-151.173
11
172.379
21
-150.744
0
LINE
8
Black
10
172.379
20
-150.744
11
172.521
21
-150.03
0
LINE
8
Black
10
172.521
20
-150.03
11
172.521
21
-149.459
0
LINE
8
Black
10
172.521
20
-149.459
11
172.379
21
-148.744
0
LINE
8
Black
10
172.379
20
-148.744
11
172.236
21
-148.316
0
LINE
8
Black
10
172.236
20
-148.316
11
172.093
21
-148.03
0
LINE
8
Black
10
172.093
20
-148.03
11
171.807
21
-147.601
0
LINE
8
Black
10
171.807
20
-147.601
11
171.664
21
-147.459
0
LINE
8
Black
10
106.442
20
-153.998
11
106.95
21
-153.49
0
LINE
8
Black
10
106.95
20
-153.49
11
106.442
21
-152.982
0
LINE
8
Black
10
106.442
20
-152.982
11
105.934
21
-153.49
0
LINE
8
Black
10
105.934
20
-153.49
11
106.442
21
-153.998
0
LINE
8
Black
10
111.236
20
-154.847
11
109.521
21
-154.847
0
LINE
8
Black
10
110.379
20
-154.847
11
110.379
21
-151.847
0
LINE
8
Black
10
110.379
20
-151.847
11
110.093
21
-152.276
0
LINE
8
Black
10
110.093
20
-152.276
11
109.807
21
-152.561
0
LINE
8
Black
10
109.807
20
-152.561
11
109.521
21
-152.704
0
LINE
8
Black
10
112.521
20
-154.561
11
112.664
21
-154.704
0
LINE
8
Black
10
112.664
20
-154.704
11
112.521
21
-154.847
0
LINE
8
Black
10
112.521
20
-154.847
11
112.379
21
-154.704
0
LINE
8
Black
10
112.379
20
-154.704
11
112.521
21
-154.561
0
LINE
8
Black
10
112.521
20
-154.561
11
112.521
21
-154.847
0
LINE
8
Black
10
114.521
20
-151.847
11
114.807
21
-151.847
0
LINE
8
Black
10
114.807
20
-151.847
11
115.093
21
-151.99
0
LINE
8
Black
10
115.093
20
-151.99
11
115.236
21
-152.133
0
LINE
8
Black
10
115.236
20
-152.133
11
115.379
21
-152.419
0
LINE
8
Black
10
115.379
20
-152.419
11
115.521
21
-152.99
0
LINE
8
Black
10
115.521
20
-152.99
11
115.521
21
-153.704
0
LINE
8
Black
10
115.521
20
-153.704
11
115.379
21
-154.276
0
LINE
8
Black
10
115.379
20
-154.276
11
115.236
21
-154.561
0
LINE
8
Black
10
115.236
20
-154.561
11
115.093
21
-154.704
0
LINE
8
Black
10
115.093
20
-154.704
11
114.807
21
-154.847
0
LINE
8
Black
10
114.807
20
-154.847
11
114.521
21
-154.847
0
LINE
8
Black
10
114.521
20
-154.847
11
114.236
21
-154.704
0
LINE
8
Black
10
114.236
20
-154.704
11
114.093
21
-154.561
0
LINE
8
Black
10
114.093
20
-154.561
11
113.95
21
-154.276
0
LINE
8
Black
10
113.95
20
-154.276
11
113.807
21
-153.704
0
LINE
8
Black
10
113.807
20
-153.704
11
113.807
21
-152.99
0
LINE
8
Black
10
113.807
20
-152.99
11
113.95
21
-152.419
0
LINE
8
Black
10
113.95
20
-152.419
11
114.093
21
-152.133
0
LINE
8
Black
10
114.093
20
-152.133
11
114.236
21
-151.99
0
LINE
8
Black
10
114.236
20
-151.99
11
114.521
21
-151.847
0
LINE
8
Black
10
116.664
20
-152.133
11
116.807
21
-151.99
0
LINE
8
Black
10
116.807
20
-151.99
11
117.093
21
-151.847
0
LINE
8
Black
10
117.093
20
-151.847
11
117.807
21
-151.847
0
LINE
8
Black
10
117.807
20
-151.847
11
118.093
21
-151.99
0
LINE
8
Black
10
118.093
20
-151.99
11
118.236
21
-152.133
0
LINE
8
Black
10
118.236
20
-152.133
11
118.379
21
-152.419
0
LINE
8
Black
10
118.379
20
-152.419
11
118.379
21
-152.704
0
LINE
8
Black
10
118.379
20
-152.704
11
118.236
21
-153.133
0
LINE
8
Black
10
118.236
20
-153.133
11
116.521
21
-154.847
0
LINE
8
Black
10
116.521
20
-154.847
11
118.379
21
-154.847
0
LINE
8
Black
10
119.664
20
-154.847
11
119.664
21
-152.847
0
LINE
8
Black
10
119.664
20
-153.133
11
119.807
21
-152.99
0
LINE
8
Black
10
119.807
20
-152.99
11
120.093
21
-152.847
0
LINE
8
Black
10
120.093
20
-152.847
11
120.521
21
-152.847
0
LINE
8
Black
10
120.521
20
-152.847
11
120.807
21
-152.99
0
LINE
8
Black
10
120.807
20
-152.99
11
120.95
21
-153.276
0
LINE
8
Black
10
120.95
20
-153.276
11
120.95
21
-154.847
0
LINE
8
Black
10
120.95
20
-153.276
11
121.093
21
-152.99
0
LINE
8
Black
10
121.093
20
-152.99
11
121.379
21
-152.847
0
LINE
8
Black
10
121.379
20
-152.847
11
121.807
21
-152.847
0
LINE
8
Black
10
121.807
20
-152.847
11
122.093
21
-152.99
0
LINE
8
Black
10
122.093
20
-152.99
11
122.236
21
-153.276
0
LINE
8
Black
10
122.236
20
-153.276
11
122.236
21
-154.847
0
LINE
8
Black
10
123.664
20
-154.847
11
123.664
21
-152.847
0
LINE
8
Black
10
123.664
20
-153.133
11
123.807
21
-152.99
0
LINE
8
Black
10
123.807
20
-152.99
11
124.093
21
-152.847
0
LINE
8
Black
10
124.093
20
-152.847
11
124.521
21
-152.847
0
LINE
8
Black
10
124.521
20
-152.847
11
124.807
21
-152.99
0
LINE
8
Black
10
124.807
20
-152.99
11
124.95
21
-153.276
0
LINE
8
Black
10
124.95
20
-153.276
11
124.95
21
-154.847
0
LINE
8
Black
10
124.95
20
-153.276
11
125.093
21
-152.99
0
LINE
8
Black
10
125.093
20
-152.99
11
125.379
21
-152.847
0
LINE
8
Black
10
125.379
20
-152.847
11
125.807
21
-152.847
0
LINE
8
Black
10
125.807
20
-152.847
11
126.093
21
-152.99
0
LINE
8
Black
10
126.093
20
-152.99
11
126.236
21
-153.276
0
LINE
8
Black
10
126.236
20
-153.276
11
126.236
21
-154.847
0
LINE
8
Black
10
132.093
20
-151.704
11
129.521
21
-155.561
0
LINE
8
Black
10
135.95
20
-151.847
11
136.236
21
-151.847
0
LINE
8
Black
10
136.236
20
-151.847
11
136.521
21
-151.99
0
LINE
8
Black
10
136.521
20
-151.99
11
136.664
21
-152.133
0
LINE
8
Black
10
136.664
20
-152.133
11
136.807
21
-152.419
0
LINE
8
Black
10
136.807
20
-152.419
11
136.95
21
-152.99
0
LINE
8
Black
10
136.95
20
-152.99
11
136.95
21
-153.704
0
LINE
8
Black
10
136.95
20
-153.704
11
136.807
21
-154.276
0
LINE
8
Black
10
136.807
20
-154.276
11
136.664
21
-154.561
0
LINE
8
Black
10
136.664
20
-154.561
11
136.521
21
-154.704
0
LINE
8
Black
10
136.521
20
-154.704
11
136.236
21
-154.847
0
LINE
8
Black
10
136.236
20
-154.847
11
135.95
21
-154.847
0
LINE
8
Black
10
135.95
20
-154.847
11
135.664
21
-154.704
0
LINE
8
Black
10
135.664
20
-154.704
11
135.521
21
-154.561
0
LINE
8
Black
10
135.521
20
-154.561
11
135.379
21
-154.276
0
LINE
8
Black
10
135.379
20
-154.276
11
135.236
21
-153.704
0
LINE
8
Black
10
135.236
20
-153.704
11
135.236
21
-152.99
0
LINE
8
Black
10
135.236
20
-152.99
11
135.379
21
-152.419
0
LINE
8
Black
10
135.379
20
-152.419
11
135.521
21
-152.133
0
LINE
8
Black
10
135.521
20
-152.133
11
135.664
21
-151.99
0
LINE
8
Black
10
135.664
20
-151.99
11
135.95
21
-151.847
0
LINE
8
Black
10
138.236
20
-154.561
11
138.379
21
-154.704
0
LINE
8
Black
10
138.379
20
-154.704
11
138.236
21
-154.847
0
LINE
8
Black
10
138.236
20
-154.847
11
138.093
21
-154.704
0
LINE
8
Black
10
138.093
20
-154.704
11
138.236
21
-154.561
0
LINE
8
Black
10
138.236
20
-154.561
11
138.236
21
-154.847
0
LINE
8
Black
10
140.236
20
-151.847
11
140.521
21
-151.847
0
LINE
8
Black
10
140.521
20
-151.847
11
140.807
21
-151.99
0
LINE
8
Black
10
140.807
20
-151.99
11
140.95
21
-152.133
0
LINE
8
Black
10
140.95
20
-152.133
11
141.093
21
-152.419
0
LINE
8
Black
10
141.093
20
-152.419
11
141.236
21
-152.99
0
LINE
8
Black
10
141.236
20
-152.99
11
141.236
21
-153.704
0
LINE
8
Black
10
141.236
20
-153.704
11
141.093
21
-154.276
0
LINE
8
Black
10
141.093
20
-154.276
11
140.95
21
-154.561
0
LINE
8
Black
10
140.95
20
-154.561
11
140.807
21
-154.704
0
LINE
8
Black
10
140.807
20
-154.704
11
140.521
21
-154.847
0
LINE
8
Black
10
140.521
20
-154.847
11
140.236
21
-154.847
0
LINE
8
Black
10
140.236
20
-154.847
11
139.95
21
-154.704
0
LINE
8
Black
10
139.95
20
-154.704
11
139.807
21
-154.561
0
LINE
8
Black
10
139.807
20
-154.561
11
139.664
21
-154.276
0
LINE
8
Black
10
139.664
20
-154.276
11
139.521
21
-153.704
0
LINE
8
Black
10
139.521
20
-153.704
11
139.521
21
-152.99
0
LINE
8
Black
10
139.521
20
-152.99
11
139.664
21
-152.419
0
LINE
8
Black
10
139.664
20
-152.419
11
139.807
21
-152.133
0
LINE
8
Black
10
139.807
20
-152.133
11
139.95
21
-151.99
0
LINE
8
Black
10
139.95
20
-151.99
11
140.236
21
-151.847
0
LINE
8
Black
10
143.807
20
-152.847
11
143.807
21
-154.847
0
LINE
8
Black
10
143.093
20
-151.704
11
142.379
21
-153.847
0
LINE
8
Black
10
142.379
20
-153.847
11
144.236
21
-153.847
0
LINE
8
Black
10
145.95
20
-151.847
11
146.236
21
-151.847
0
LINE
8
Black
10
146.236
20
-151.847
11
146.521
21
-151.99
0
LINE
8
Black
10
146.521
20
-151.99
11
146.664
21
-152.133
0
LINE
8
Black
10
146.664
20
-152.133
11
146.807
21
-152.419
0
LINE
8
Black
10
146.807
20
-152.419
11
146.95
21
-152.99
0
LINE
8
Black
10
146.95
20
-152.99
11
146.95
21
-153.704
0
LINE
8
Black
10
146.95
20
-153.704
11
146.807
21
-154.276
0
LINE
8
Black
10
146.807
20
-154.276
11
146.664
21
-154.561
0
LINE
8
Black
10
146.664
20
-154.561
11
146.521
21
-154.704
0
LINE
8
Black
10
146.521
20
-154.704
11
146.236
21
-154.847
0
LINE
8
Black
10
146.236
20
-154.847
11
145.95
21
-154.847
0
LINE
8
Black
10
145.95
20
-154.847
11
145.664
21
-154.704
0
LINE
8
Black
10
145.664
20
-154.704
11
145.521
21
-154.561
0
LINE
8
Black
10
145.521
20
-154.561
11
145.379
21
-154.276
0
LINE
8
Black
10
145.379
20
-154.276
11
145.236
21
-153.704
0
LINE
8
Black
10
145.236
20
-153.704
11
145.236
21
-152.99
0
LINE
8
Black
10
145.236
20
-152.99
11
145.379
21
-152.419
0
LINE
8
Black
10
145.379
20
-152.419
11
145.521
21
-152.133
0
LINE
8
Black
10
145.521
20
-152.133
11
145.664
21
-151.99
0
LINE
8
Black
10
145.664
20
-151.99
11
145.95
21
-151.847
0
LINE
8
Black
10
148.093
20
-151.847
11
148.093
21
-152.419
0
LINE
8
Black
10
149.236
20
-151.847
11
149.236
21
-152.419
0
LINE
8
Black
10
153.664
20
-155.99
11
153.521
21
-155.847
0
LINE
8
Black
10
153.521
20
-155.847
11
153.236
21
-155.419
0
LINE
8
Black
10
153.236
20
-155.419
11
153.093
21
-155.133
0
LINE
8
Black
10
153.093
20
-155.133
11
152.95
21
-154.704
0
LINE
8
Black
10
152.95
20
-154.704
11
152.807
21
-153.99
0
LINE
8
Black
10
152.807
20
-153.99
11
152.807
21
-153.419
0
LINE
8
Black
10
152.807
20
-153.419
11
152.95
21
-152.704
0
LINE
8
Black
10
152.95
20
-152.704
11
153.093
21
-152.276
0
LINE
8
Black
10
153.093
20
-152.276
11
153.236
21
-151.99
0
LINE
8
Black
10
153.236
20
-151.99
11
153.521
21
-151.561
0
LINE
8
Black
10
153.521
20
-151.561
11
153.664
21
-151.419
0
LINE
8
Black
10
156.379
20
-154.847
11
154.664
21
-154.847
0
LINE
8
Black
10
155.521
20
-154.847
11
155.521
21
-151.847
0
LINE
8
Black
10
155.521
20
-151.847
11
155.236
21
-152.276
0
LINE
8
Black
10
155.236
20
-152.276
11
154.95
21
-152.561
0
LINE
8
Black
10
154.95
20
-152.561
11
154.664
21
-152.704
0
LINE
8
Black
10
158.236
20
-151.847
11
158.521
21
-151.847
0
LINE
8
Black
10
158.521
20
-151.847
11
158.807
21
-151.99
0
LINE
8
Black
10
158.807
20
-151.99
11
158.95
21
-152.133
0
LINE
8
Black
10
158.95
20
-152.133
11
159.093
21
-152.419
0
LINE
8
Black
10
159.093
20
-152.419
11
159.236
21
-152.99
0
LINE
8
Black
10
159.236
20
-152.99
11
159.236
21
-153.704
0
LINE
8
Black
10
159.236
20
-153.704
11
159.093
21
-154.276
0
LINE
8
Black
10
159.093
20
-154.276
11
158.95
21
-154.561
0
LINE
8
Black
10
158.95
20
-154.561
11
158.807
21
-154.704
0
LINE
8
Black
10
158.807
20
-154.704
11
158.521
21
-154.847
0
LINE
8
Black
10
158.521
20
-154.847
11
158.236
21
-154.847
0
LINE
8
Black
10
158.236
20
-154.847
11
157.95
21
-154.704
0
LINE
8
Black
10
157.95
20
-154.704
11
157.807
21
-154.561
0
LINE
8
Black
10
157.807
20
-154.561
11
157.664
21
-154.276
0
LINE
8
Black
10
157.664
20
-154.276
11
157.521
21
-153.704
0
LINE
8
Black
10
157.521
20
-153.704
11
157.521
21
-152.99
0
LINE
8
Black
10
157.521
20
-152.99
11
157.664
21
-152.419
0
LINE
8
Black
10
157.664
20
-152.419
11
157.807
21
-152.133
0
LINE
8
Black
10
157.807
20
-152.133
11
157.95
21
-151.99
0
LINE
8
Black
10
157.95
20
-151.99
11
158.236
21
-151.847
0
LINE
8
Black
10
162.807
20
-154.847
11
162.807
21
-151.847
0
LINE
8
Black
10
164.093
20
-154.847
11
164.093
21
-153.276
0
LINE
8
Black
10
164.093
20
-153.276
11
163.95
21
-152.99
0
LINE
8
Black
10
163.95
20
-152.99
11
163.664
21
-152.847
0
LINE
8
Black
10
163.664
20
-152.847
11
163.236
21
-152.847
0
LINE
8
Black
10
163.236
20
-152.847
11
162.95
21
-152.99
0
LINE
8
Black
10
162.95
20
-152.99
11
162.807
21
-153.133
0
LINE
8
Black
10
165.95
20
-154.847
11
165.664
21
-154.704
0
LINE
8
Black
10
165.664
20
-154.704
11
165.521
21
-154.561
0
LINE
8
Black
10
165.521
20
-154.561
11
165.379
21
-154.276
0
LINE
8
Black
10
165.379
20
-154.276
11
165.379
21
-153.419
0
LINE
8
Black
10
165.379
20
-153.419
11
165.521
21
-153.133
0
LINE
8
Black
10
165.521
20
-153.133
11
165.664
21
-152.99
0
LINE
8
Black
10
165.664
20
-152.99
11
165.95
21
-152.847
0
LINE
8
Black
10
165.95
20
-152.847
11
166.379
21
-152.847
0
LINE
8
Black
10
166.379
20
-152.847
11
166.664
21
-152.99
0
LINE
8
Black
10
166.664
20
-152.99
11
166.807
21
-153.133
0
LINE
8
Black
10
166.807
20
-153.133
11
166.95
21
-153.419
0
LINE
8
Black
10
166.95
20
-153.419
11
166.95
21
-154.276
0
LINE
8
Black
10
166.95
20
-154.276
11
166.807
21
-154.561
0
LINE
8
Black
10
166.807
20
-154.561
11
166.664
21
-154.704
0
LINE
8
Black
10
166.664
20
-154.704
11
166.379
21
-154.847
0
LINE
8
Black
10
166.379
20
-154.847
11
165.95
21
-154.847
0
LINE
8
Black
10
168.664
20
-154.847
11
168.379
21
-154.704
0
LINE
8
Black
10
168.379
20
-154.704
11
168.236
21
-154.419
0
LINE
8
Black
10
168.236
20
-154.419
11
168.236
21
-151.847
0
LINE
8
Black
10
170.95
20
-154.704
11
170.664
21
-154.847
0
LINE
8
Black
10
170.664
20
-154.847
11
170.093
21
-154.847
0
LINE
8
Black
10
170.093
20
-154.847
11
169.807
21
-154.704
0
LINE
8
Black
10
169.807
20
-154.704
11
169.664
21
-154.419
0
LINE
8
Black
10
169.664
20
-154.419
11
169.664
21
-153.276
0
LINE
8
Black
10
169.664
20
-153.276
11
169.807
21
-152.99
0
LINE
8
Black
10
169.807
20
-152.99
11
170.093
21
-152.847
0
LINE
8
Black
10
170.093
20
-152.847
11
170.664
21
-152.847
0
LINE
8
Black
10
170.664
20
-152.847
11
170.95
21
-152.99
0
LINE
8
Black
10
170.95
20
-152.99
11
171.093
21
-153.276
0
LINE
8
Black
10
171.093
20
-153.276
11
171.093
21
-153.561
0
LINE
8
Black
10
171.093
20
-153.561
11
169.664
21
-153.847
0
LINE
8
Black
10
172.236
20
-154.704
11
172.521
21
-154.847
0
LINE
8
Black
10
172.521
20
-154.847
11
173.093
21
-154.847
0
LINE
8
Black
10
173.093
20
-154.847
11
173.379
21
-154.704
0
LINE
8
Black
10
173.379
20
-154.704
11
173.521
21
-154.419
0
LINE
8
Black
10
173.521
20
-154.419
11
173.521
21
-154.276
0
LINE
8
Black
10
173.521
20
-154.276
11
173.379
21
-153.99
0
LINE
8
Black
10
173.379
20
-153.99
11
173.093
21
-153.847
0
LINE
8
Black
10
173.093
20
-153.847
11
172.664
21
-153.847
0
LINE
8
Black
10
172.664
20
-153.847
11
172.379
21
-153.704
0
LINE
8
Black
10
172.379
20
-153.704
11
172.236
21
-153.419
0
LINE
8
Black
10
172.236
20
-153.419
11
172.236
21
-153.276
0
LINE
8
Black
10
172.236
20
-153.276
11
172.379
21
-152.99
0
LINE
8
Black
10
172.379
20
-152.99
11
172.664
21
-152.847
0
LINE
8
Black
10
172.664
20
-152.847
11
173.093
21
-152.847
0
LINE
8
Black
10
173.093
20
-152.847
11
173.379
21
-152.99
0
LINE
8
Black
10
174.521
20
-155.99
11
174.664
21
-155.847
0
LINE
8
Black
10
174.664
20
-155.847
11
174.95
21
-155.419
0
LINE
8
Black
10
174.95
20
-155.419
11
175.093
21
-155.133
0
LINE
8
Black
10
175.093
20
-155.133
11
175.236
21
-154.704
0
LINE
8
Black
10
175.236
20
-154.704
11
175.379
21
-153.99
0
LINE
8
Black
10
175.379
20
-153.99
11
175.379
21
-153.419
0
LINE
8
Black
10
175.379
20
-153.419
11
175.236
21
-152.704
0
LINE
8
Black
10
175.236
20
-152.704
11
175.093
21
-152.276
0
LINE
8
Black
10
175.093
20
-152.276
11
174.95
21
-151.99
0
LINE
8
Black
10
174.95
20
-151.99
11
174.664
21
-151.561
0
LINE
8
Black
10
174.664
20
-151.561
11
174.521
21
-151.419
0
LINE
8
Black
10
103.95
20
-155.95
11
106.95
21
-158.95
0
LINE
8
Black
10
106.95
20
-155.95
11
103.95
21
-158.95
0
CIRCLE
8
Black
10
105.45
20
-157.45
40
1.5
0
LINE
8
Black
10
109.379
20
-155.807
11
111.236
21
-155.807
0
LINE
8
Black
10
111.236
20
-155.807
11
110.236
21
-156.95
0
LINE
8
Black
10
110.236
20
-156.95
11
110.664
21
-156.95
0
LINE
8
Black
10
110.664
20
-156.95
11
110.95
21
-157.093
0
LINE
8
Black
10
110.95
20
-157.093
11
111.093
21
-157.236
0
LINE
8
Black
10
111.093
20
-157.236
11
111.236
21
-157.521
0
LINE
8
Black
10
111.236
20
-157.521
11
111.236
21
-158.236
0
LINE
8
Black
10
111.236
20
-158.236
11
111.093
21
-158.521
0
LINE
8
Black
10
111.093
20
-158.521
11
110.95
21
-158.664
0
LINE
8
Black
10
110.95
20
-158.664
11
110.664
21
-158.807
0
LINE
8
Black
10
110.664
20
-158.807
11
109.807
21
-158.807
0
LINE
8
Black
10
109.807
20
-158.807
11
109.521
21
-158.664
0
LINE
8
Black
10
109.521
20
-158.664
11
109.379
21
-158.521
0
LINE
8
Black
10
112.521
20
-158.521
11
112.664
21
-158.664
0
LINE
8
Black
10
112.664
20
-158.664
11
112.521
21
-158.807
0
LINE
8
Black
10
112.521
20
-158.807
11
112.379
21
-158.664
0
LINE
8
Black
10
112.379
20
-158.664
11
112.521
21
-158.521
0
LINE
8
Black
10
112.521
20
-158.521
11
112.521
21
-158.807
0
LINE
8
Black
10
114.521
20
-155.807
11
114.807
21
-155.807
0
LINE
8
Black
10
114.807
20
-155.807
11
115.093
21
-155.95
0
LINE
8
Black
10
115.093
20
-155.95
11
115.236
21
-156.093
0
LINE
8
Black
10
115.236
20
-156.093
11
115.379
21
-156.379
0
LINE
8
Black
10
115.379
20
-156.379
11
115.521
21
-156.95
0
LINE
8
Black
10
115.521
20
-156.95
11
115.521
21
-157.664
0
LINE
8
Black
10
115.521
20
-157.664
11
115.379
21
-158.236
0
LINE
8
Black
10
115.379
20
-158.236
11
115.236
21
-158.521
0
LINE
8
Black
10
115.236
20
-158.521
11
115.093
21
-158.664
0
LINE
8
Black
10
115.093
20
-158.664
11
114.807
21
-158.807
0
LINE
8
Black
10
114.807
20
-158.807
11
114.521
21
-158.807
0
LINE
8
Black
10
114.521
20
-158.807
11
114.236
21
-158.664
0
LINE
8
Black
10
114.236
20
-158.664
11
114.093
21
-158.521
0
LINE
8
Black
10
114.093
20
-158.521
11
113.95
21
-158.236
0
LINE
8
Black
10
113.95
20
-158.236
11
113.807
21
-157.664
0
LINE
8
Black
10
113.807
20
-157.664
11
113.807
21
-156.95
0
LINE
8
Black
10
113.807
20
-156.95
11
113.95
21
-156.379
0
LINE
8
Black
10
113.95
20
-156.379
11
114.093
21
-156.093
0
LINE
8
Black
10
114.093
20
-156.093
11
114.236
21
-155.95
0
LINE
8
Black
10
114.236
20
-155.95
11
114.521
21
-155.807
0
LINE
8
Black
10
117.379
20
-155.807
11
117.664
21
-155.807
0
LINE
8
Black
10
117.664
20
-155.807
11
117.95
21
-155.95
0
LINE
8
Black
10
117.95
20
-155.95
11
118.093
21
-156.093
0
LINE
8
Black
10
118.093
20
-156.093
11
118.236
21
-156.379
0
LINE
8
Black
10
118.236
20
-156.379
11
118.379
21
-156.95
0
LINE
8
Black
10
118.379
20
-156.95
11
118.379
21
-157.664
0
LINE
8
Black
10
118.379
20
-157.664
11
118.236
21
-158.236
0
LINE
8
Black
10
118.236
20
-158.236
11
118.093
21
-158.521
0
LINE
8
Black
10
118.093
20
-158.521
11
117.95
21
-158.664
0
LINE
8
Black
10
117.95
20
-158.664
11
117.664
21
-158.807
0
LINE
8
Black
10
117.664
20
-158.807
11
117.379
21
-158.807
0
LINE
8
Black
10
117.379
20
-158.807
11
117.093
21
-158.664
0
LINE
8
Black
10
117.093
20
-158.664
11
116.95
21
-158.521
0
LINE
8
Black
10
116.95
20
-158.521
11
116.807
21
-158.236
0
LINE
8
Black
10
116.807
20
-158.236
11
116.664
21
-157.664
0
LINE
8
Black
10
116.664
20
-157.664
11
116.664
21
-156.95
0
LINE
8
Black
10
116.664
20
-156.95
11
116.807
21
-156.379
0
LINE
8
Black
10
116.807
20
-156.379
11
116.95
21
-156.093
0
LINE
8
Black
10
116.95
20
-156.093
11
117.093
21
-155.95
0
LINE
8
Black
10
117.093
20
-155.95
11
117.379
21
-155.807
0
LINE
8
Black
10
119.664
20
-158.807
11
119.664
21
-156.807
0
LINE
8
Black
10
119.664
20
-157.093
11
119.807
21
-156.95
0
LINE
8
Black
10
119.807
20
-156.95
11
120.093
21
-156.807
0
LINE
8
Black
10
120.093
20
-156.807
11
120.521
21
-156.807
0
LINE
8
Black
10
120.521
20
-156.807
11
120.807
21
-156.95
0
LINE
8
Black
10
120.807
20
-156.95
11
120.95
21
-157.236
0
LINE
8
Black
10
120.95
20
-157.236
11
120.95
21
-158.807
0
LINE
8
Black
10
120.95
20
-157.236
11
121.093
21
-156.95
0
LINE
8
Black
10
121.093
20
-156.95
11
121.379
21
-156.807
0
LINE
8
Black
10
121.379
20
-156.807
11
121.807
21
-156.807
0
LINE
8
Black
10
121.807
20
-156.807
11
122.093
21
-156.95
0
LINE
8
Black
10
122.093
20
-156.95
11
122.236
21
-157.236
0
LINE
8
Black
10
122.236
20
-157.236
11
122.236
21
-158.807
0
LINE
8
Black
10
123.664
20
-158.807
11
123.664
21
-156.807
0
LINE
8
Black
10
123.664
20
-157.093
11
123.807
21
-156.95
0
LINE
8
Black
10
123.807
20
-156.95
11
124.093
21
-156.807
0
LINE
8
Black
10
124.093
20
-156.807
11
124.521
21
-156.807
0
LINE
8
Black
10
124.521
20
-156.807
11
124.807
21
-156.95
0
LINE
8
Black
10
124.807
20
-156.95
11
124.95
21
-157.236
0
LINE
8
Black
10
124.95
20
-157.236
11
124.95
21
-158.807
0
LINE
8
Black
10
124.95
20
-157.236
11
125.093
21
-156.95
0
LINE
8
Black
10
125.093
20
-156.95
11
125.379
21
-156.807
0
LINE
8
Black
10
125.379
20
-156.807
11
125.807
21
-156.807
0
LINE
8
Black
10
125.807
20
-156.807
11
126.093
21
-156.95
0
LINE
8
Black
10
126.093
20
-156.95
11
126.236
21
-157.236
0
LINE
8
Black
10
126.236
20
-157.236
11
126.236
21
-158.807
0
LINE
8
Black
10
132.093
20
-155.664
11
129.521
21
-159.521
0
LINE
8
Black
10
135.95
20
-155.807
11
136.236
21
-155.807
0
LINE
8
Black
10
136.236
20
-155.807
11
136.521
21
-155.95
0
LINE
8
Black
10
136.521
20
-155.95
11
136.664
21
-156.093
0
LINE
8
Black
10
136.664
20
-156.093
11
136.807
21
-156.379
0
LINE
8
Black
10
136.807
20
-156.379
11
136.95
21
-156.95
0
LINE
8
Black
10
136.95
20
-156.95
11
136.95
21
-157.664
0
LINE
8
Black
10
136.95
20
-157.664
11
136.807
21
-158.236
0
LINE
8
Black
10
136.807
20
-158.236
11
136.664
21
-158.521
0
LINE
8
Black
10
136.664
20
-158.521
11
136.521
21
-158.664
0
LINE
8
Black
10
136.521
20
-158.664
11
136.236
21
-158.807
0
LINE
8
Black
10
136.236
20
-158.807
11
135.95
21
-158.807
0
LINE
8
Black
10
135.95
20
-158.807
11
135.664
21
-158.664
0
LINE
8
Black
10
135.664
20
-158.664
11
135.521
21
-158.521
0
LINE
8
Black
10
135.521
20
-158.521
11
135.379
21
-158.236
0
LINE
8
Black
10
135.379
20
-158.236
11
135.236
21
-157.664
0
LINE
8
Black
10
135.236
20
-157.664
11
135.236
21
-156.95
0
LINE
8
Black
10
135.236
20
-156.95
11
135.379
21
-156.379
0
LINE
8
Black
10
135.379
20
-156.379
11
135.521
21
-156.093
0
LINE
8
Black
10
135.521
20
-156.093
11
135.664
21
-155.95
0
LINE
8
Black
10
135.664
20
-155.95
11
135.95
21
-155.807
0
LINE
8
Black
10
138.236
20
-158.521
11
138.379
21
-158.664
0
LINE
8
Black
10
138.379
20
-158.664
11
138.236
21
-158.807
0
LINE
8
Black
10
138.236
20
-158.807
11
138.093
21
-158.664
0
LINE
8
Black
10
138.093
20
-158.664
11
138.236
21
-158.521
0
LINE
8
Black
10
138.236
20
-158.521
11
138.236
21
-158.807
0
LINE
8
Black
10
141.236
20
-158.807
11
139.521
21
-158.807
0
LINE
8
Black
10
140.379
20
-158.807
11
140.379
21
-155.807
0
LINE
8
Black
10
140.379
20
-155.807
11
140.093
21
-156.236
0
LINE
8
Black
10
140.093
20
-156.236
11
139.807
21
-156.521
0
LINE
8
Black
10
139.807
20
-156.521
11
139.521
21
-156.664
0
LINE
8
Black
10
144.093
20
-158.807
11
142.379
21
-158.807
0
LINE
8
Black
10
143.236
20
-158.807
11
143.236
21
-155.807
0
LINE
8
Black
10
143.236
20
-155.807
11
142.95
21
-156.236
0
LINE
8
Black
10
142.95
20
-156.236
11
142.664
21
-156.521
0
LINE
8
Black
10
142.664
20
-156.521
11
142.379
21
-156.664
0
LINE
8
Black
10
145.807
20
-157.093
11
145.521
21
-156.95
0
LINE
8
Black
10
145.521
20
-156.95
11
145.379
21
-156.807
0
LINE
8
Black
10
145.379
20
-156.807
11
145.236
21
-156.521
0
LINE
8
Black
10
145.236
20
-156.521
11
145.236
21
-156.379
0
LINE
8
Black
10
145.236
20
-156.379
11
145.379
21
-156.093
0
LINE
8
Black
10
145.379
20
-156.093
11
145.521
21
-155.95
0
LINE
8
Black
10
145.521
20
-155.95
11
145.807
21
-155.807
0
LINE
8
Black
10
145.807
20
-155.807
11
146.379
21
-155.807
0
LINE
8
Black
10
146.379
20
-155.807
11
146.664
21
-155.95
0
LINE
8
Black
10
146.664
20
-155.95
11
146.807
21
-156.093
0
LINE
8
Black
10
146.807
20
-156.093
11
146.95
21
-156.379
0
LINE
8
Black
10
146.95
20
-156.379
11
146.95
21
-156.521
0
LINE
8
Black
10
146.95
20
-156.521
11
146.807
21
-156.807
0
LINE
8
Black
10
146.807
20
-156.807
11
146.664
21
-156.95
0
LINE
8
Black
10
146.664
20
-156.95
11
146.379
21
-157.093
0
LINE
8
Black
10
146.379
20
-157.093
11
145.807
21
-157.093
0
LINE
8
Black
10
145.807
20
-157.093
11
145.521
21
-157.236
0
LINE
8
Black
10
145.521
20
-157.236
11
145.379
21
-157.379
0
LINE
8
Black
10
145.379
20
-157.379
11
145.236
21
-157.664
0
LINE
8
Black
10
145.236
20
-157.664
11
145.236
21
-158.236
0
LINE
8
Black
10
145.236
20
-158.236
11
145.379
21
-158.521
0
LINE
8
Black
10
145.379
20
-158.521
11
145.521
21
-158.664
0
LINE
8
Black
10
145.521
20
-158.664
11
145.807
21
-158.807
0
LINE
8
Black
10
145.807
20
-158.807
11
146.379
21
-158.807
0
LINE
8
Black
10
146.379
20
-158.807
11
146.664
21
-158.664
0
LINE
8
Black
10
146.664
20
-158.664
11
146.807
21
-158.521
0
LINE
8
Black
10
146.807
20
-158.521
11
146.95
21
-158.236
0
LINE
8
Black
10
146.95
20
-158.236
11
146.95
21
-157.664
0
LINE
8
Black
10
146.95
20
-157.664
11
146.807
21
-157.379
0
LINE
8
Black
10
146.807
20
-157.379
11
146.664
21
-157.236
0
LINE
8
Black
10
146.664
20
-157.236
11
146.379
21
-157.093
0
LINE
8
Black
10
148.093
20
-155.807
11
148.093
21
-156.379
0
LINE
8
Black
10
149.236
20
-155.807
11
149.236
21
-156.379
0
LINE
8
Black
10
153.664
20
-159.95
11
153.521
21
-159.807
0
LINE
8
Black
10
153.521
20
-159.807
11
153.236
21
-159.379
0
LINE
8
Black
10
153.236
20
-159.379
11
153.093
21
-159.093
0
LINE
8
Black
10
153.093
20
-159.093
11
152.95
21
-158.664
0
LINE
8
Black
10
152.95
20
-158.664
11
152.807
21
-157.95
0
LINE
8
Black
10
152.807
20
-157.95
11
152.807
21
-157.379
0
LINE
8
Black
10
152.807
20
-157.379
11
152.95
21
-156.664
0
LINE
8
Black
10
152.95
20
-156.664
11
153.093
21
-156.236
0
LINE
8
Black
10
153.093
20
-156.236
11
153.236
21
-155.95
0
LINE
8
Black
10
153.236
20
-155.95
11
153.521
21
-155.521
0
LINE
8
Black
10
153.521
20
-155.521
11
153.664
21
-155.379
0
LINE
8
Black
10
156.093
20
-156.807
11
156.093
21
-158.807
0
LINE
8
Black
10
155.379
20
-155.664
11
154.664
21
-157.807
0
LINE
8
Black
10
154.664
20
-157.807
11
156.521
21
-157.807
0
LINE
8
Black
10
159.95
20
-158.807
11
159.95
21
-155.807
0
LINE
8
Black
10
161.236
20
-158.807
11
161.236
21
-157.236
0
LINE
8
Black
10
161.236
20
-157.236
11
161.093
21
-156.95
0
LINE
8
Black
10
161.093
20
-156.95
11
160.807
21
-156.807
0
LINE
8
Black
10
160.807
20
-156.807
11
160.379
21
-156.807
0
LINE
8
Black
10
160.379
20
-156.807
11
160.093
21
-156.95
0
LINE
8
Black
10
160.093
20
-156.95
11
159.95
21
-157.093
0
LINE
8
Black
10
163.093
20
-158.807
11
162.807
21
-158.664
0
LINE
8
Black
10
162.807
20
-158.664
11
162.664
21
-158.521
0
LINE
8
Black
10
162.664
20
-158.521
11
162.521
21
-158.236
0
LINE
8
Black
10
162.521
20
-158.236
11
162.521
21
-157.379
0
LINE
8
Black
10
162.521
20
-157.379
11
162.664
21
-157.093
0
LINE
8
Black
10
162.664
20
-157.093
11
162.807
21
-156.95
0
LINE
8
Black
10
162.807
20
-156.95
11
163.093
21
-156.807
0
LINE
8
Black
10
163.093
20
-156.807
11
163.521
21
-156.807
0
LINE
8
Black
10
163.521
20
-156.807
11
163.807
21
-156.95
0
LINE
8
Black
10
163.807
20
-156.95
11
163.95
21
-157.093
0
LINE
8
Black
10
163.95
20
-157.093
11
164.093
21
-157.379
0
LINE
8
Black
10
164.093
20
-157.379
11
164.093
21
-158.236
0
LINE
8
Black
10
164.093
20
-158.236
11
163.95
21
-158.521
0
LINE
8
Black
10
163.95
20
-158.521
11
163.807
21
-158.664
0
LINE
8
Black
10
163.807
20
-158.664
11
163.521
21
-158.807
0
LINE
8
Black
10
163.521
20
-158.807
11
163.093
21
-158.807
0
LINE
8
Black
10
165.807
20
-158.807
11
165.521
21
-158.664
0
LINE
8
Black
10
165.521
20
-158.664
11
165.379
21
-158.379
0
LINE
8
Black
10
165.379
20
-158.379
11
165.379
21
-155.807
0
LINE
8
Black
10
168.093
20
-158.664
11
167.807
21
-158.807
0
LINE
8
Black
10
167.807
20
-158.807
11
167.236
21
-158.807
0
LINE
8
Black
10
167.236
20
-158.807
11
166.95
21
-158.664
0
LINE
8
Black
10
166.95
20
-158.664
11
166.807
21
-158.379
0
LINE
8
Black
10
166.807
20
-158.379
11
166.807
21
-157.236
0
LINE
8
Black
10
166.807
20
-157.236
11
166.95
21
-156.95
0
LINE
8
Black
10
166.95
20
-156.95
11
167.236
21
-156.807
0
LINE
8
Black
10
167.236
20
-156.807
11
167.807
21
-156.807
0
LINE
8
Black
10
167.807
20
-156.807
11
168.093
21
-156.95
0
LINE
8
Black
10
168.093
20
-156.95
11
168.236
21
-157.236
0
LINE
8
Black
10
168.236
20
-157.236
11
168.236
21
-157.521
0
LINE
8
Black
10
168.236
20
-157.521
11
166.807
21
-157.807
0
LINE
8
Black
10
169.379
20
-158.664
11
169.664
21
-158.807
0
LINE
8
Black
10
169.664
20
-158.807
11
170.236
21
-158.807
0
LINE
8
Black
10
170.236
20
-158.807
11
170.521
21
-158.664
0
LINE
8
Black
10
170.521
20
-158.664
11
170.664
21
-158.379
0
LINE
8
Black
10
170.664
20
-158.379
11
170.664
21
-158.236
0
LINE
8
Black
10
170.664
20
-158.236
11
170.521
21
-157.95
0
LINE
8
Black
10
170.521
20
-157.95
11
170.236
21
-157.807
0
LINE
8
Black
10
170.236
20
-157.807
11
169.807
21
-157.807
0
LINE
8
Black
10
169.807
20
-157.807
11
169.521
21
-157.664
0
LINE
8
Black
10
169.521
20
-157.664
11
169.379
21
-157.379
0
LINE
8
Black
10
169.379
20
-157.379
11
169.379
21
-157.236
0
LINE
8
Black
10
169.379
20
-157.236
11
169.521
21
-156.95
0
LINE
8
Black
10
169.521
20
-156.95
11
169.807
21
-156.807
0
LINE
8
Black
10
169.807
20
-156.807
11
170.236
21
-156.807
0
LINE
8
Black
10
170.236
20
-156.807
11
170.521
21
-156.95
0
LINE
8
Black
10
171.664
20
-159.95
11
171.807
21
-159.807
0
LINE
8
Black
10
171.807
20
-159.807
11
172.093
21
-159.379
0
LINE
8
Black
10
172.093
20
-159.379
11
172.236
21
-159.093
0
LINE
8
Black
10
172.236
20
-159.093
11
172.379
21
-158.664
0
LINE
8
Black
10
172.379
20
-158.664
11
172.521
21
-157.95
0
LINE
8
Black
10
172.521
20
-157.95
11
172.521
21
-157.379
0
LINE
8
Black
10
172.521
20
-157.379
11
172.379
21
-156.664
0
LINE
8
Black
10
172.379
20
-156.664
11
172.236
21
-156.236
0
LINE
8
Black
10
172.236
20
-156.236
11
172.093
21
-155.95
0
LINE
8
Black
10
172.093
20
-155.95
11
171.807
21
-155.521
0
LINE
8
Black
10
171.807
20
-155.521
11
171.664
21
-155.379
  0
ENDSEC
  0
EOF
