G04 #@! TF.FileFunction,Copper,L1,Top,Signal*
%FSLAX46Y46*%
G04 Gerber Fmt 4.6, Leading zero omitted, Abs format (unit mm)*
G04 Created by KiCad (PCBNEW (2015-06-01 BZR 5694)-product) date Wed 26 Aug 2015 01:19:54 PM PDT*
%MOMM*%
G01*
G04 APERTURE LIST*
%ADD10C,0.100000*%
%ADD11C,3.500000*%
%ADD12R,2.000000X1.900000*%
%ADD13C,1.900000*%
%ADD14R,1.727200X1.727200*%
%ADD15O,1.727200X1.727200*%
%ADD16C,1.998980*%
%ADD17C,2.500000*%
%ADD18C,1.400000*%
%ADD19C,1.600000*%
%ADD20C,0.250000*%
G04 APERTURE END LIST*
D10*
D11*
X155000000Y-123000000D03*
D12*
X118750000Y-110250000D03*
D13*
X118750000Y-112790000D03*
D14*
X120650000Y-87100000D03*
D15*
X123190000Y-87100000D03*
X120650000Y-89640000D03*
X123190000Y-89640000D03*
X120650000Y-92180000D03*
X123190000Y-92180000D03*
X120650000Y-94720000D03*
X123190000Y-94720000D03*
X120650000Y-97260000D03*
X123190000Y-97260000D03*
D16*
X125500000Y-121250000D03*
X125500000Y-106250000D03*
D17*
X137250000Y-82200000D03*
X143750000Y-82200000D03*
D18*
X137400000Y-108855000D03*
X136130000Y-110125000D03*
X137400000Y-111395000D03*
X136130000Y-112665000D03*
X137400000Y-113935000D03*
X136130000Y-115205000D03*
X137400000Y-116475000D03*
X136130000Y-117745000D03*
X144070000Y-108855000D03*
X142800000Y-110125000D03*
X144070000Y-111395000D03*
X142800000Y-112665000D03*
X144070000Y-113935000D03*
X142800000Y-115205000D03*
X144070000Y-116475000D03*
X142800000Y-117745000D03*
D11*
X112000000Y-123000000D03*
X112000000Y-80000000D03*
X155000000Y-80000000D03*
D16*
X128500000Y-104000000D03*
X128500000Y-89000000D03*
D19*
X131000000Y-84500000D03*
X141400000Y-95400000D03*
X124100000Y-102300000D03*
X115900000Y-94700000D03*
D20*
X141400000Y-94900000D02*
X131000000Y-84500000D01*
X141400000Y-95400000D02*
X141400000Y-94900000D01*
X124100000Y-102300000D02*
X119100000Y-102300000D01*
X119100000Y-102300000D02*
X115900000Y-99100000D01*
X115900000Y-99100000D02*
X115900000Y-94700000D01*
M02*
