G04 #@! TF.FileFunction,Legend,Top*
%FSLAX46Y46*%
G04 Gerber Fmt 4.6, Leading zero omitted, Abs format (unit mm)*
G04 Created by KiCad (PCBNEW (2015-06-01 BZR 5694)-product) date Wed 26 Aug 2015 08:29:44 AM PDT*
%MOMM*%
G01*
G04 APERTURE LIST*
%ADD10C,0.100000*%
%ADD11C,0.150000*%
%ADD12C,0.125000*%
G04 APERTURE END LIST*
D10*
D11*
X117225096Y-109035112D02*
G75*
G03X120250000Y-109020000I1524904J-2484888D01*
G01*
X117250000Y-109020000D02*
X120250000Y-109020000D01*
X121267936Y-111520000D02*
G75*
G03X121267936Y-111520000I-2517936J0D01*
G01*
X124460000Y-85830000D02*
X124460000Y-98530000D01*
X124460000Y-98530000D02*
X119380000Y-98530000D01*
X119380000Y-98530000D02*
X119380000Y-88370000D01*
X124460000Y-85830000D02*
X121920000Y-85830000D01*
X120650000Y-85550000D02*
X119100000Y-85550000D01*
X121920000Y-85830000D02*
X121920000Y-88370000D01*
X121920000Y-88370000D02*
X119380000Y-88370000D01*
X119100000Y-85550000D02*
X119100000Y-87100000D01*
X124230000Y-118830000D02*
X126770000Y-118830000D01*
X126770000Y-118830000D02*
X126770000Y-108670000D01*
X126770000Y-108670000D02*
X124230000Y-108670000D01*
X124230000Y-108670000D02*
X124230000Y-118830000D01*
X125500000Y-107400000D02*
X125500000Y-108670000D01*
X125500000Y-120100000D02*
X125500000Y-118830000D01*
X146500000Y-82200000D02*
G75*
G03X146500000Y-82200000I-6000000J0D01*
G01*
X136100000Y-122300000D02*
X144100000Y-122300000D01*
X144100000Y-122300000D02*
X144100000Y-125300000D01*
X144100000Y-125300000D02*
X136100000Y-125300000D01*
X136100000Y-125300000D02*
X136100000Y-122300000D01*
X139100000Y-103300000D02*
X139100000Y-100300000D01*
X139100000Y-100300000D02*
X133100000Y-100300000D01*
X133100000Y-100300000D02*
X133100000Y-103300000D01*
X147100000Y-103300000D02*
X147100000Y-100300000D01*
X147100000Y-100300000D02*
X141100000Y-100300000D01*
X141100000Y-100300000D02*
X141100000Y-103300000D01*
X130100000Y-103300000D02*
X150100000Y-103300000D01*
X150100000Y-103300000D02*
X150100000Y-123300000D01*
X150100000Y-123300000D02*
X130100000Y-123300000D01*
X130100000Y-123300000D02*
X130100000Y-103300000D01*
X115138381Y-112512095D02*
X114138381Y-112512095D01*
X114138381Y-112274000D01*
X114186000Y-112131142D01*
X114281238Y-112035904D01*
X114376476Y-111988285D01*
X114566952Y-111940666D01*
X114709810Y-111940666D01*
X114900286Y-111988285D01*
X114995524Y-112035904D01*
X115090762Y-112131142D01*
X115138381Y-112274000D01*
X115138381Y-112512095D01*
X115138381Y-110988285D02*
X115138381Y-111559714D01*
X115138381Y-111274000D02*
X114138381Y-111274000D01*
X114281238Y-111369238D01*
X114376476Y-111464476D01*
X114424095Y-111559714D01*
X117297381Y-108606905D02*
X116297381Y-108606905D01*
X117297381Y-108035476D02*
X116725952Y-108464048D01*
X116297381Y-108035476D02*
X116868810Y-108606905D01*
X119911905Y-82452381D02*
X119911905Y-81452381D01*
X120292858Y-81452381D01*
X120388096Y-81500000D01*
X120435715Y-81547619D01*
X120483334Y-81642857D01*
X120483334Y-81785714D01*
X120435715Y-81880952D01*
X120388096Y-81928571D01*
X120292858Y-81976190D01*
X119911905Y-81976190D01*
X121435715Y-82452381D02*
X120864286Y-82452381D01*
X121150000Y-82452381D02*
X121150000Y-81452381D01*
X121054762Y-81595238D01*
X120959524Y-81690476D01*
X120864286Y-81738095D01*
X122203341Y-113916666D02*
X121727150Y-114250000D01*
X122203341Y-114488095D02*
X121203341Y-114488095D01*
X121203341Y-114107142D01*
X121250960Y-114011904D01*
X121298579Y-113964285D01*
X121393817Y-113916666D01*
X121536674Y-113916666D01*
X121631912Y-113964285D01*
X121679531Y-114011904D01*
X121727150Y-114107142D01*
X121727150Y-114488095D01*
X121298579Y-113535714D02*
X121250960Y-113488095D01*
X121203341Y-113392857D01*
X121203341Y-113154761D01*
X121250960Y-113059523D01*
X121298579Y-113011904D01*
X121393817Y-112964285D01*
X121489055Y-112964285D01*
X121631912Y-113011904D01*
X122203341Y-113583333D01*
X122203341Y-112964285D01*
D12*
X139869048Y-80702381D02*
X139940477Y-80726190D01*
X140059524Y-80726190D01*
X140107143Y-80702381D01*
X140130953Y-80678571D01*
X140154762Y-80630952D01*
X140154762Y-80583333D01*
X140130953Y-80535714D01*
X140107143Y-80511905D01*
X140059524Y-80488095D01*
X139964286Y-80464286D01*
X139916667Y-80440476D01*
X139892858Y-80416667D01*
X139869048Y-80369048D01*
X139869048Y-80321429D01*
X139892858Y-80273810D01*
X139916667Y-80250000D01*
X139964286Y-80226190D01*
X140083334Y-80226190D01*
X140154762Y-80250000D01*
X140369048Y-80726190D02*
X140369048Y-80226190D01*
X140559524Y-80226190D01*
X140607143Y-80250000D01*
X140630952Y-80273810D01*
X140654762Y-80321429D01*
X140654762Y-80392857D01*
X140630952Y-80440476D01*
X140607143Y-80464286D01*
X140559524Y-80488095D01*
X140369048Y-80488095D01*
X141130952Y-80726190D02*
X140845238Y-80726190D01*
X140988095Y-80726190D02*
X140988095Y-80226190D01*
X140940476Y-80297619D01*
X140892857Y-80345238D01*
X140845238Y-80369048D01*
D11*
X139361905Y-120752381D02*
X139361905Y-119752381D01*
X139742858Y-119752381D01*
X139838096Y-119800000D01*
X139885715Y-119847619D01*
X139933334Y-119942857D01*
X139933334Y-120085714D01*
X139885715Y-120180952D01*
X139838096Y-120228571D01*
X139742858Y-120276190D01*
X139361905Y-120276190D01*
X140314286Y-119847619D02*
X140361905Y-119800000D01*
X140457143Y-119752381D01*
X140695239Y-119752381D01*
X140790477Y-119800000D01*
X140838096Y-119847619D01*
X140885715Y-119942857D01*
X140885715Y-120038095D01*
X140838096Y-120180952D01*
X140266667Y-120752381D01*
X140885715Y-120752381D01*
M02*
