M48
;DRILL file {KiCad (2015-06-09 BZR 5726)-product} date Fri 21 Aug 2015 10:33:47 AM PDT
;FORMAT={-:-/ absolute / metric / decimal}
FMAT,2
METRIC,TZ
T1C0.800
T2C0.900
T3C1.000
T4C1.001
T5C1.016
T6C3.000
%
G90
G05
M71
T1
X136.53Y-104.555
X136.53Y-107.095
X136.53Y-109.635
X136.53Y-112.175
X137.8Y-105.825
X137.8Y-108.365
X137.8Y-110.905
X137.8Y-113.445
X143.2Y-104.555
X143.2Y-107.095
X143.2Y-109.635
X143.2Y-112.175
X144.47Y-105.825
X144.47Y-108.365
X144.47Y-110.905
X144.47Y-113.445
T2
X117.9Y-94.7
X126.8Y-89.7
X130.Y-115.
X131.Y-112.
T3
X136.75Y-84.5
X143.25Y-84.5
T4
X118.75Y-110.25
X118.75Y-112.79
X125.5Y-106.25
X125.5Y-121.25
T5
X120.65Y-87.1
X120.65Y-89.64
X120.65Y-92.18
X120.65Y-94.72
X120.65Y-97.26
X123.19Y-87.1
X123.19Y-89.64
X123.19Y-92.18
X123.19Y-94.72
X123.19Y-97.26
T6
X112.Y-80.
X112.Y-123.
X155.Y-80.
X155.Y-123.
T0
M30
