M48
;DRILL file {KiCad (2015-06-01 BZR 5694)-product} date Wed 26 Aug 2015 09:46:05 PM PDT
;FORMAT={-:-/ absolute / inch / decimal}
FMAT,2
INCH,TZ
T1C0.035
T2C0.039
T3C0.039
T4C0.040
T5C0.138
%
G90
G05
M72
T1
X4.563Y-3.7283
X4.8858Y-4.0276
X5.1575Y-3.3268
X5.3608Y-4.3356
X5.3608Y-4.4356
X5.3608Y-4.5356
X5.3608Y-4.6356
X5.4108Y-4.2856
X5.4108Y-4.3856
X5.4108Y-4.4856
X5.4108Y-4.5856
X5.5669Y-3.7559
X5.5734Y-4.3356
X5.5734Y-4.4356
X5.5734Y-4.5356
X5.5734Y-4.6356
X5.6234Y-4.2856
X5.6234Y-4.3856
X5.6234Y-4.4856
X5.6234Y-4.5856
T2
X5.4035Y-3.2362
X5.6594Y-3.2362
T3
X4.6752Y-4.3406
X4.6752Y-4.4406
X4.9409Y-4.1831
X4.9409Y-4.7736
X5.0591Y-3.5039
X5.0591Y-4.0945
T4
X4.75Y-3.4291
X4.75Y-3.5291
X4.75Y-3.6291
X4.75Y-3.7291
X4.75Y-3.8291
X4.85Y-3.4291
X4.85Y-3.5291
X4.85Y-3.6291
X4.85Y-3.7291
X4.85Y-3.8291
T5
X4.4094Y-3.1496
X4.4094Y-4.8425
X6.1024Y-3.1496
X6.1024Y-4.8425
T0
M30
