M48
;DRILL file {KiCad (2015-06-01 BZR 5694)-product} date Wed 26 Aug 2015 08:29:48 AM PDT
;FORMAT={-:-/ absolute / inch / decimal}
FMAT,2
INCH,TZ
T1C0.031
T2C0.035
T3C0.039
T4C0.039
T5C0.040
T6C0.138
%
G90
G05
M72
T1
X5.3594Y-4.3356
X5.3594Y-4.4356
X5.3594Y-4.5356
X5.3594Y-4.6356
X5.4094Y-4.2856
X5.4094Y-4.3856
X5.4094Y-4.4856
X5.4094Y-4.5856
X5.622Y-4.3356
X5.622Y-4.4356
X5.622Y-4.5356
X5.622Y-4.6356
X5.672Y-4.2856
X5.672Y-4.3856
X5.672Y-4.4856
X5.672Y-4.5856
T2
X4.563Y-3.7283
X4.8858Y-4.0276
X5.0472Y-3.5276
X5.5669Y-3.7559
T3
X5.4035Y-3.2362
X5.6594Y-3.2362
T4
X4.6752Y-4.3406
X4.6752Y-4.4406
X4.9409Y-4.1831
X4.9409Y-4.7736
T5
X4.75Y-3.4291
X4.75Y-3.5291
X4.75Y-3.6291
X4.75Y-3.7291
X4.75Y-3.8291
X4.85Y-3.4291
X4.85Y-3.5291
X4.85Y-3.6291
X4.85Y-3.7291
X4.85Y-3.8291
T6
X4.4094Y-3.1496
X4.4094Y-4.8425
X6.1024Y-3.1496
X6.1024Y-4.8425
T0
M30
